<svg xmlns="http://www.w3.org/2000/svg" xml:space="preserve" width="251.814" height="251.542" viewBox="0 0 30.86 30.826"><path d="M-34.694-41.415c-1.36-.16-2.012-.268-2.267-.376a14 14 0 0 0-.98-.32c-.869-.257-2.616-1.122-3.309-1.638-.27-.2-.6-.415-.735-.476-.32-.144-3.12-2.945-3.265-3.264-.06-.135-.274-.466-.473-.735-.826-1.118-1.544-2.77-2.077-4.78-.344-1.3-.356-1.435-.332-3.86.026-2.604.123-3.249.788-5.208.284-.837 1.174-2.59 1.618-3.187.201-.27.415-.6.476-.735.145-.32 2.946-3.12 3.265-3.264.135-.061.465-.276.735-.476 1.28-.954 3.104-1.645 5.944-2.255 1.068-.229 3.24-.256 4.78-.058.572.073 1.151.144 1.286.156.955.091 3.997 1.398 5.024 2.159.27.2.6.413.736.473.319.145 3.12 2.946 3.264 3.265.061.135.274.466.474.735.902 1.22 1.749 3.312 2.207 5.454.311 1.45.348 5.454.054 5.841-.094.124-.172.407-.174.63-.01.963-1.244 3.993-2.082 5.11-.202.27-.418.6-.479.735-.144.32-2.945 3.12-3.264 3.264-.135.061-.466.276-.736.477-1.096.817-3.228 1.686-5.392 2.2-.747.176-3.991.261-5.086.133m-1.321-7.413c.956-.973 1.35-1.575 1.97-3.012.856-1.983.682-5.281-.38-7.214-.05-.093-.428-.29-.84-.439-.877-.318-2.142-1.14-2.707-1.758-.219-.24-.398-.474-.398-.519 0-.044-.1-.197-.224-.34l-.224-.257-.695.702c-.382.387-.695.77-.695.852 0 .083-.045.15-.1.15-.139 0-.936 1.743-1.206 2.635-.349 1.154-.295 3.757.102 4.902.552 1.594 1.821 3.637 2.5 4.025.136.078.423.302.639.498.408.372 1.004.783 1.155.799.048.005.545-.456 1.103-1.024m8.908.175c1.398-1.122 2.41-2.585 3.009-4.35.538-1.587.495-3.985-.101-5.7-.363-1.042-1.23-2.46-1.906-3.117l-.497-.482-.308.29c-.17.158-.308.337-.308.395 0 .139-.288.423-1.042 1.028-.806.648-1.343.946-2.059 1.146-.664.185-.816.403-1.32 1.905-.244.727-.288 1.11-.292 2.512-.004 1.42.036 1.777.283 2.512.553 1.651 1.113 2.59 2.198 3.687l1.015 1.027.397-.212a8 8 0 0 0 .93-.641m-4.097-12.468c.83-.262 1.724-.856 2.436-1.618.562-.601.583-.648.39-.861-.195-.215-1.363-.714-1.855-.793-.45-.072-.188-.582.8-1.553.945-.929.961-.954.728-1.166-.232-.21-.277-.178-1.553 1.094l-1.315 1.31h-2.3l-1.305-1.286c-.718-.708-1.359-1.287-1.423-1.287s-.192.12-.283.266c-.155.249-.103.328.829 1.243.546.537.994 1.017.994 1.067 0 .155-.277.308-1.186.656-.484.185-.94.409-1.013.497-.102.123.06.353.696.988 1.575 1.573 3.394 2.063 5.36 1.443" style="fill:#000;stroke-width:.122549" transform="translate(48.14 72.18)"/></svg>