<svg xmlns="http://www.w3.org/2000/svg" xml:space="preserve" width="251.28" height="251.309" viewBox="0 0 30.794 30.798"><path d="M158.249-41.076c-1.514-.148-3.733-.817-5.147-1.554l-1.287-.668c-.456-.236-1.635-1.132-1.95-1.482-.128-.143-.295-.26-.37-.26-.13 0-.805-.69-.805-.822 0-.034-.276-.364-.613-.733s-.613-.743-.613-.831c0-.089-.076-.19-.169-.226-.246-.094-1.476-2.655-1.894-3.944-.596-1.834-.693-2.522-.691-4.902.002-2.152.056-2.61.503-4.228.58-2.1 2.234-5.127 3.274-5.99.112-.092.203-.22.203-.284 0-.152.681-.834.833-.834.065 0 .193-.091.286-.203.787-.95 3.375-2.419 5.437-3.087 1.83-.593 2.529-.693 4.841-.691 2.118 0 3.076.116 4.29.516.303.1.606.19.673.202.584.101 3.735 1.642 3.822 1.868.036.094.137.17.226.17.088 0 .462.276.83.613.37.337.7.612.733.612.133 0 .823.675.823.805 0 .076.117.243.26.371.35.314 1.246 1.493 1.481 1.95l.672 1.286c1.527 2.912 1.965 6.333 1.317 10.294-.039.236-.115.54-.17.674-.055.135-.172.493-.258.797-.087.303-.204.604-.26.668a.6.6 0 0 0-.1.335c0 .27-1.308 2.807-1.544 2.993-.095.075-.172.19-.172.256s-.274.418-.609.783-.61.7-.612.746c-.006.107-.734.835-.842.84-.045.003-.38.279-.745.614s-.717.608-.783.608-.181.077-.256.172c-.187.236-2.723 1.544-2.994 1.544a.6.6 0 0 0-.335.1c-.064.057-.364.173-.668.26-.303.087-.661.203-.796.258-.863.353-4.063.575-5.821.404m3.431-5.858c1.511-.322 1.888-.447 2.846-.946q1.807-.939 3.021-2.4c.346-.414.628-.778.628-.809 0-.03.188-.387.418-.794 1-1.768 1.392-4.074 1.035-6.086-.283-1.598-1.2-3.69-1.965-4.484a8 8 0 0 1-.424-.505c-.716-.929-2.807-2.255-4.184-2.656-1.602-.466-3.74-.741-3.89-.5-.032.052-.348.134-.702.18-2.799.37-5.592 2.384-6.917 4.99-1.506 2.958-1.51 6.034-.01 8.975 1.599 3.14 4.87 5.156 8.429 5.195a9.5 9.5 0 0 0 1.715-.16m-2.635-1.417c-1.519-.257-1.59-.285-1.632-.642-.032-.28.008-.336.246-.337.36-.002 1.456-.508 1.677-.776.093-.112.232-.203.31-.203.18 0 1.667-1.493 1.667-1.674 0-.074.087-.207.193-.295.308-.255.863-1.45 1.109-2.383.502-1.91.11-4.165-1.025-5.881-.96-1.453-2.999-3.002-3.95-3.002-.193 0-.249-.08-.249-.352 0-.321.045-.358.52-.42a42 42 0 0 0 1.309-.207 5.7 5.7 0 0 1 1.47-.048c.376.05.794.097.929.105.709.046 2.7.863 3.009 1.236.08.097.21.176.288.176.246 0 1.52 1.38 2.085 2.258.298.463.642 1.192.764 1.62.123.428.26.779.304.779.189 0 .184 3.761-.005 3.921-.04.034-.201.444-.359.911-.727 2.158-2.78 4.206-4.8 4.787-.37.107-.783.243-.918.302-.135.06-.328.106-.43.103-.1-.003-.569.023-1.04.06-.473.036-1.134.019-1.471-.038z" style="fill:#000;stroke-width:.122549" transform="translate(-144.71 71.815)"/></svg>