<svg xmlns="http://www.w3.org/2000/svg" xml:space="preserve" width="251.051" height="251.117" viewBox="0 0 30.766 30.774"><path d="M12.13-43.864c-.405-.06-.984-.17-1.287-.244a27 27 0 0 0-.89-.204c-.186-.037-.369-.116-.406-.176-.036-.06-.154-.108-.26-.108-.252 0-3.223-1.468-3.223-1.592 0-.053-.097-.13-.215-.17-.867-.305-3.25-2.72-4.394-4.454-.498-.756-.906-1.42-.906-1.474s-.164-.428-.364-.83c-.2-.403-.366-.826-.368-.94s-.052-.237-.112-.274-.138-.22-.173-.406a42 42 0 0 0-.286-1.257c-.314-1.31-.314-5.063 0-6.373.122-.505.25-1.071.286-1.258.036-.186.113-.368.173-.405s.109-.15.109-.252c0-.315 1.055-2.384 1.774-3.477.99-1.507 2.982-3.494 4.247-4.239a4 4 0 0 0 .442-.317c.263-.223 2.765-1.449 2.96-1.449.076 0 .234-.05.351-.11.118-.061.448-.172.734-.246a40 40 0 0 0 1.042-.287c.834-.246 5.201-.189 6.28.082.472.118 1.01.244 1.197.28.186.035.368.113.405.173s.152.108.255.108c.265 0 2.924 1.312 3.108 1.533.083.1.205.183.27.183.208 0 .827.515 2.208 1.838 2.307 2.21 3.775 4.818 4.52 8.027.112.487.17 1.5.17 3.002 0 1.503-.058 2.515-.17 3.003-.745 3.209-2.213 5.816-4.52 8.027-1.38 1.322-2 1.838-2.208 1.838-.065 0-.186.081-.268.18-.209.251-2.484 1.353-3.44 1.666-.435.143-1.15.341-1.588.441-.944.216-4.39.318-5.453.16m.395-6.637c-.424-.57-.857-1.383-1.194-2.245-.243-.62-.29-.966-.296-2.206-.007-1.283.03-1.564.288-2.206.164-.404.404-.89.535-1.079.13-.19.217-.363.193-.385-.105-.1-2.473.197-3.361.42-.535.135-1.386.453-1.891.709-.874.441-.918.484-.9.865.023.502.455 1.584 1 2.501.423.715 2.04 2.415 2.596 2.73 1.104.626 2.377 1.163 2.756 1.163.161 0 .33.06.374.131s.108.103.142.07c.034-.034-.075-.245-.242-.468m6.312-.504c3.18-1.583 5.117-5.335 4.639-8.99-.085-.65-.2-1.298-.255-1.44-.746-1.918-1.141-2.578-2.194-3.666-.917-.947-1.471-1.353-2.597-1.903-.836-.409-2.494-.872-3.132-.875-.433-.002-.602-.257-.41-.618.185-.345.266-1.569.15-2.264l-.102-.612-.224.429c-.54 1.032-2.448 2.847-4.06 3.862-1.64 1.033-1.99 1.297-2.78 2.1-1.459 1.483-1.97 2.418-2.54 4.638-.17.67-.163.702.128.547.611-.327 3.519-.853 4.717-.853.822 0 2.07-.329 2.893-.761a4.7 4.7 0 0 0 1.944-1.882c.184-.327.393-.615.464-.638s.224.139.339.362c.302.588 1.156 1.653 1.451 1.812.412.221 1.148 1.442 1.312 2.174.315 1.406-.145 3.301-1.044 4.309-.668.748-2.116 1.304-3.757 1.44-.536.045-.975.097-.975.115s.107.285.239.592c.365.852 1.63 2.038 2.522 2.365 1.293.474 1.925.427 3.272-.243M7.966-61.994c-.27-.436 1.577-2.63 2.334-2.771.601-.113.701.007.638.763-.042.517-.132.744-.412 1.041-.654.697-2.335 1.332-2.56.967" style="fill:#000;stroke-width:.122549" transform="translate(.99 74.562)"/></svg>