<svg
   viewBox="0 0 64.999998 65.000001"
   xmlns="http://www.w3.org/2000/svg"
   >
    <path
       d="M 32.502084,0.5 C 14.827821,0.50000004 0.50000007,14.826422 0.50000007,32.498958 0.49884894,50.172308 14.827007,64.5 32.502084,64.5 50.175533,64.497698 64.501151,50.170681 64.5,32.498958 64.5,14.828049 50.174719,0.50230149 32.502084,0.5 m 0,7.9215866 c 0,0 2.799193,7.3109514 6.065264,12.3627604 3.937211,-0.841968 7.680584,-2.02781 7.680584,-2.02781 0,0 -1.185957,3.740923 -2.025923,7.67775 5.052302,3.263668 12.361883,6.064671 12.361883,6.064671 0,0 -7.309581,2.798919 -12.361883,6.064672 0.839966,3.936826 2.025923,7.681917 2.025923,7.681917 0,0 -3.743373,-1.187925 -7.680584,-2.027809 -3.266071,5.051809 -6.065264,12.36276 -6.065264,12.36276 0,0 -2.801276,-7.310951 -6.065264,-12.36276 -2.586984,0.567234 -5.14878,1.243776 -7.678499,2.027809 0,0 1.188041,-3.745091 2.028007,-7.681917 -5.054386,-3.265753 -12.3681361,-6.064672 -12.3681361,-6.064672 0,0 7.3158341,-2.801003 12.3681361,-6.064671 -0.84205,-3.936827 -2.028007,-7.67775 -2.028007,-7.67775 0,0 3.741288,1.187926 7.678499,2.02781 3.263988,-5.051809 6.065264,-12.3627604 6.065264,-12.3627604 m 0,13.1797194 c 0,0 -1.967563,5.147677 -3.860092,7.037937 -1.892529,1.892344 -7.038625,3.859715 -7.038625,3.859715 0,0 5.14818,1.971539 7.038625,3.8618 1.892529,1.892344 3.860092,7.037936 3.860092,7.037936 0,0 1.969648,-5.145592 3.862177,-7.037936 1.892529,-1.892345 7.038624,-3.8618 7.038624,-3.8618 0,0 -5.146095,-1.967371 -7.038624,-3.859715 -1.892529,-1.89026 -3.862177,-7.037937 -3.862177,-7.037937"
        />
  <path
     d="M 32.501953 0 C 32.47444 6.0174343e-11 32.447419 0.0018847332 32.419922 0.001953125 C 31.41283 0.0043691476 30.417253 0.056274691 29.433594 0.1484375 C 29.190977 0.17118427 28.950025 0.20046104 28.708984 0.22851562 C 28.321995 0.27354289 27.935462 0.31648585 27.552734 0.375 C 27.015528 0.45713187 26.481355 0.55203482 25.953125 0.66015625 C 25.425692 0.76811472 24.902572 0.88829153 24.384766 1.0214844 C 24.3834 1.0218358 24.382225 1.0230859 24.380859 1.0234375 C 23.863104 1.1566908 23.3512 1.3011772 22.84375 1.4589844 C 22.842387 1.4594083 22.841207 1.4605135 22.839844 1.4609375 C 22.33244 1.618805 21.830406 1.7889616 21.333984 1.9707031 C 21.101324 2.0558628 20.87467 2.1518944 20.644531 2.2421875 C 20.382024 2.3451943 20.116551 2.4431436 19.857422 2.5527344 C 19.856088 2.5532985 19.854849 2.5541232 19.853516 2.5546875 C 18.882827 2.9653651 17.935466 3.4222449 17.015625 3.921875 C 16.946363 3.9594931 16.879504 4.0009567 16.810547 4.0390625 C 16.41944 4.2552079 16.031441 4.4754434 15.650391 4.7070312 C 15.205191 4.9776065 14.766784 5.2577995 14.335938 5.5488281 C 14.334738 5.5496383 14.333231 5.5499709 14.332031 5.5507812 C 13.900929 5.8420656 13.478551 6.14399 13.0625 6.4550781 C 13.061348 6.4559393 13.059745 6.45617 13.058594 6.4570312 C 12.642576 6.7681796 12.234273 7.0896469 11.833984 7.4199219 C 11.832885 7.4208288 11.831177 7.4209679 11.830078 7.421875 C 11.429823 7.75221 11.038143 8.0926217 10.654297 8.4414062 C 10.653253 8.4423545 10.651434 8.442411 10.650391 8.4433594 C 10.266576 8.7922047 9.892117 9.15096 9.5253906 9.5175781 C 8.7896583 10.253027 8.0886307 11.023293 7.4257812 11.826172 C 7.3352127 11.935873 7.2512593 12.051207 7.1621094 12.162109 C 6.9252391 12.456783 6.6876155 12.749762 6.4609375 13.052734 C 6.4600828 13.053877 6.4598389 13.055498 6.4589844 13.056641 C 6.1478192 13.472652 5.8460537 13.897056 5.5546875 14.328125 C 5.5541784 14.328878 5.5532434 14.329325 5.5527344 14.330078 C 5.2611004 14.76162 4.9800989 15.200533 4.7089844 15.646484 C 4.7085165 15.647254 4.707499 15.647668 4.7070312 15.648438 C 4.4359455 16.094424 4.1756668 16.548094 3.9257812 17.007812 C 3.6879855 17.445302 3.4601787 17.890519 3.2421875 18.339844 C 3.2309826 18.362941 3.2181831 18.385075 3.2070312 18.408203 C 3.2063984 18.409515 3.2057108 18.410797 3.2050781 18.412109 C 2.9774137 18.884433 2.7617931 19.362987 2.5566406 19.847656 C 2.5560723 19.848999 2.5552556 19.85022 2.5546875 19.851562 C 2.3495934 20.336275 2.1565123 20.827838 1.9746094 21.324219 C 1.9743179 21.325014 1.9729477 21.325376 1.9726562 21.326172 C 1.7905735 21.823161 1.6210474 22.325978 1.4628906 22.833984 C 1.011693 24.283436 0.6636892 25.778155 0.41796875 27.306641 C 0.40490781 27.387846 0.38745768 27.467423 0.375 27.548828 C 0.29264182 28.087249 0.22353599 28.62902 0.16796875 29.175781 C 0.1123864 29.721967 0.071140841 30.270391 0.04296875 30.824219 C 0.014811286 31.378616 0 31.936676 0 32.498047 C -3.6522776e-05 33.058784 0.014910633 33.616138 0.04296875 34.169922 C 0.071049435 34.723705 0.11248122 35.272212 0.16796875 35.818359 C 0.22347302 36.365161 0.29270146 36.906847 0.375 37.445312 C 0.45721264 37.983142 0.55190023 38.516091 0.66015625 39.044922 C 0.66028417 39.045547 0.66002829 39.04625 0.66015625 39.046875 C 0.76831488 39.575071 0.88997742 40.09865 1.0234375 40.617188 C 1.2907721 41.65613 1.6078275 42.673842 1.9726562 43.669922 C 2.154952 44.167663 2.3490754 44.658516 2.5546875 45.144531 C 2.7605251 45.631122 2.9765485 46.111784 3.2050781 46.585938 C 3.4333249 47.059544 3.6736284 47.525812 3.9238281 47.986328 C 4.0153604 48.154807 4.1145756 48.31771 4.2089844 48.484375 C 4.5301441 49.051334 4.8671124 49.60723 5.2207031 50.152344 C 5.3314584 50.32309 5.4369287 50.497498 5.5507812 50.666016 C 5.8431631 51.09878 6.1446949 51.523809 6.4570312 51.941406 C 6.7689994 52.358562 7.0906808 52.76663 7.421875 53.167969 C 7.4224561 53.168673 7.423247 53.169218 7.4238281 53.169922 C 7.7544709 53.570523 8.0942384 53.963496 8.4433594 54.347656 C 8.4439769 54.348336 8.4446949 54.34893 8.4453125 54.349609 C 8.7944639 54.733738 9.1525811 55.109555 9.5195312 55.476562 L 9.5214844 55.478516 C 9.8884655 55.845492 10.264337 56.203558 10.648438 56.552734 C 10.649119 56.553354 10.649709 56.554068 10.650391 56.554688 C 11.034523 56.903834 11.427553 57.243552 11.828125 57.574219 C 11.828834 57.574804 11.82937 57.575587 11.830078 57.576172 C 12.465667 58.100756 13.126012 58.59445 13.800781 59.070312 C 13.977773 59.195142 14.150509 59.325907 14.330078 59.447266 C 14.330518 59.447563 14.331591 59.446968 14.332031 59.447266 C 14.763827 59.739055 15.202219 60.021726 15.648438 60.292969 C 15.648906 60.293254 15.649922 60.292684 15.650391 60.292969 C 16.096611 60.564181 16.549803 60.824233 17.009766 61.074219 C 17.234797 61.19652 17.46516 61.308681 17.693359 61.425781 C 17.932268 61.548383 18.167865 61.676158 18.410156 61.792969 C 18.41068 61.793221 18.411586 61.792716 18.412109 61.792969 C 18.88514 62.020989 19.364198 62.237923 19.849609 62.443359 C 19.85095 62.443927 19.852175 62.444745 19.853516 62.445312 C 20.338175 62.650354 20.829851 62.843539 21.326172 63.025391 C 21.326967 63.025682 21.327329 63.027052 21.328125 63.027344 C 21.825055 63.209375 22.327997 63.379003 22.835938 63.537109 C 23.119556 63.625388 23.408425 63.702547 23.695312 63.783203 C 23.922845 63.847169 24.147432 63.917459 24.376953 63.976562 C 24.37817 63.976876 24.379643 63.976249 24.380859 63.976562 C 24.898752 64.10986 25.421691 64.229836 25.949219 64.337891 C 26.289659 64.40764 26.634293 64.464432 26.978516 64.523438 C 27.169088 64.556098 27.357141 64.595677 27.548828 64.625 C 27.550101 64.625195 27.551461 64.624805 27.552734 64.625 C 28.08926 64.707009 28.630978 64.776622 29.175781 64.832031 C 29.177072 64.832163 29.178397 64.8319 29.179688 64.832031 C 29.724515 64.887377 30.273745 64.928965 30.826172 64.957031 C 31.38129 64.985256 31.939844 65 32.501953 65 C 34.427663 65.000046 36.310638 64.821533 38.144531 64.5 C 38.444667 64.447346 38.747677 64.400678 39.044922 64.339844 C 39.046937 64.339432 39.048767 64.338303 39.050781 64.337891 C 39.577581 64.229972 40.099997 64.10965 40.617188 63.976562 C 40.619187 63.976048 40.621048 63.975124 40.623047 63.974609 C 41.140178 63.841432 41.651358 63.696729 42.158203 63.539062 C 42.160175 63.538449 42.162091 63.537723 42.164062 63.537109 C 42.170566 63.535085 42.177092 63.533278 42.183594 63.53125 C 43.194457 63.215929 44.184525 62.852128 45.150391 62.443359 C 45.634239 62.238583 46.112437 62.024087 46.583984 61.796875 C 46.586089 61.795861 46.587739 61.793983 46.589844 61.792969 C 47.061313 61.565669 47.525881 61.327182 47.984375 61.078125 C 47.986436 61.077005 47.988173 61.075339 47.990234 61.074219 C 49.369424 60.324642 50.687974 59.479256 51.9375 58.544922 C 51.940107 58.542972 51.942706 58.541013 51.945312 58.539062 C 52.360225 58.22868 52.766755 57.909484 53.166016 57.580078 C 53.168141 57.578324 53.16975 57.575973 53.171875 57.574219 C 53.571041 57.244722 53.962863 56.906438 54.345703 56.558594 C 54.347747 56.556736 54.349519 56.554592 54.351562 56.552734 C 54.734308 56.204799 55.108863 55.84803 55.474609 55.482422 L 55.480469 55.476562 C 55.846123 55.110862 56.202801 54.736214 56.550781 54.353516 C 56.552636 54.351476 56.554787 54.349697 56.556641 54.347656 C 56.904199 53.965227 57.243021 53.574503 57.572266 53.175781 C 57.574336 53.173274 57.576055 53.170477 57.578125 53.167969 C 57.90725 52.769149 58.226972 52.361704 58.537109 51.947266 C 58.539058 51.944661 58.541021 51.942059 58.542969 51.939453 C 58.852986 51.524916 59.153002 51.103311 59.443359 50.673828 C 59.445176 50.671141 59.447403 50.668704 59.449219 50.666016 C 59.739459 50.236429 60.019157 49.799329 60.289062 49.355469 C 60.290739 49.352712 60.293247 49.350414 60.294922 49.347656 C 60.564711 48.903688 60.823486 48.451711 61.072266 47.994141 C 61.230421 47.703252 61.377901 47.40554 61.527344 47.109375 C 61.614323 46.937001 61.707034 46.767865 61.791016 46.59375 C 61.792535 46.5906 61.793404 46.587135 61.794922 46.583984 C 62.021639 46.113553 62.237023 45.636972 62.441406 45.154297 C 62.442769 45.151078 62.443951 45.147751 62.445312 45.144531 C 62.649876 44.660991 62.84391 44.172882 63.025391 43.677734 C 63.026309 43.675228 63.026426 43.672429 63.027344 43.669922 C 63.091259 43.495404 63.14604 43.316527 63.207031 43.140625 C 63.319084 42.817449 63.433109 42.49568 63.535156 42.167969 C 63.641907 41.82517 63.736437 41.476461 63.832031 41.128906 C 63.878186 40.961101 63.931092 40.795831 63.974609 40.626953 C 63.975434 40.623751 63.975738 40.62039 63.976562 40.617188 C 64.109337 40.101277 64.230166 39.580159 64.337891 39.054688 C 64.338555 39.051447 64.339181 39.048163 64.339844 39.044922 C 64.447415 38.519371 64.5412 37.989517 64.623047 37.455078 C 64.623546 37.451821 64.624502 37.44857 64.625 37.445312 C 64.706788 36.910151 64.774755 36.371522 64.830078 35.828125 C 64.868837 35.447431 64.89248 35.06219 64.917969 34.677734 C 64.929047 34.510635 64.948491 34.345513 64.957031 34.177734 C 64.957163 34.175148 64.9569 34.172508 64.957031 34.169922 C 64.98502 33.617481 64.99997 33.061314 65 32.501953 C 65.000013 31.939875 64.985237 31.381262 64.957031 30.826172 C 64.929076 30.275074 64.887136 29.727129 64.832031 29.183594 C 64.831769 29.18101 64.832294 29.178365 64.832031 29.175781 C 64.776801 28.632297 64.706704 28.09384 64.625 27.558594 C 64.542811 27.020168 64.44814 26.486439 64.339844 25.957031 C 64.015373 24.370853 63.575856 22.826943 63.029297 21.333984 C 63.028589 21.33205 63.028052 21.330059 63.027344 21.328125 C 62.845754 20.832396 62.651991 20.341517 62.447266 19.857422 C 62.446466 19.855531 62.446112 19.853453 62.445312 19.851562 C 62.240499 19.367516 62.024149 18.889706 61.796875 18.417969 C 61.795991 18.416134 61.795806 18.413944 61.794922 18.412109 C 61.567307 17.939893 61.327572 17.474826 61.078125 17.015625 C 61.07743 17.014346 61.076867 17.012998 61.076172 17.011719 C 61.039238 16.94375 60.998341 16.878222 60.960938 16.810547 C 60.744814 16.41944 60.524531 16.031441 60.292969 15.650391 C 60.098269 15.330039 59.89284 15.018046 59.6875 14.705078 C 59.60659 14.581738 59.531754 14.454197 59.449219 14.332031 C 59.157963 13.901005 58.855976 13.478478 58.544922 13.0625 C 58.544068 13.061357 58.543823 13.059736 58.542969 13.058594 C 58.231854 12.642649 57.910315 12.234202 57.580078 11.833984 C 57.57918 11.832896 57.579023 11.831166 57.578125 11.830078 C 57.247827 11.429894 56.907337 11.038075 56.558594 10.654297 C 56.557658 10.653267 56.557577 10.651421 56.556641 10.650391 C 56.207836 10.266645 55.848995 9.8920518 55.482422 9.5253906 C 54.891433 8.934259 54.271596 8.3725548 53.636719 7.828125 C 53.481905 7.6953669 53.3331 7.5556576 53.175781 7.4257812 C 53.174682 7.4248739 53.172974 7.4247354 53.171875 7.4238281 C 52.771689 7.0935365 52.363184 6.7721131 51.947266 6.4609375 C 51.946114 6.4600759 51.944511 6.4598458 51.943359 6.4589844 C 51.527408 6.147869 51.104834 5.84601 50.673828 5.5546875 C 50.67263 5.5538775 50.67112 5.5535442 50.669922 5.5527344 C 50.238881 5.261471 49.800886 4.9797776 49.355469 4.7089844 C 49.354229 4.7082305 49.352803 4.707785 49.351562 4.7070312 C 48.906108 4.4362969 48.453293 4.1753679 47.994141 3.9257812 C 47.992863 3.9250868 47.991512 3.9245224 47.990234 3.9238281 C 46.148554 2.9229681 44.198833 2.0961772 42.164062 1.4628906 C 41.76098 1.3374365 41.35104 1.2252437 40.941406 1.1152344 C 40.833883 1.0863673 40.729053 1.0512254 40.621094 1.0234375 C 40.10321 0.89008728 39.58221 0.77022447 39.054688 0.66210938 C 39.053437 0.66185304 39.052032 0.66236557 39.050781 0.66210938 C 38.523862 0.55418288 37.990937 0.45707485 37.455078 0.375 C 37.453172 0.3747083 37.451125 0.37529137 37.449219 0.375 C 36.912695 0.2929213 36.37293 0.22345591 35.828125 0.16796875 C 35.82684 0.16783795 35.825504 0.1680994 35.824219 0.16796875 C 35.279388 0.11254477 34.730169 0.071122242 34.177734 0.04296875 C 34.176441 0.042902975 34.175121 0.043034374 34.173828 0.04296875 C 33.620074 0.014814128 33.062665 7.3020864e-05 32.501953 0 z M 32.501953 1 C 33.045779 1.0000708 33.586009 1.0137489 34.123047 1.0410156 C 34.12434 1.0410812 34.12566 1.0409499 34.126953 1.0410156 C 34.66267 1.0682812 35.194351 1.1084359 35.722656 1.1621094 C 35.724583 1.1623048 35.726589 1.1619136 35.728516 1.1621094 C 36.256144 1.2158123 36.7812 1.2838892 37.300781 1.3632812 C 37.302053 1.3634755 37.303416 1.3630869 37.304688 1.3632812 C 37.824881 1.4428322 38.340091 1.5359772 38.851562 1.640625 C 38.852814 1.640881 38.854217 1.6403689 38.855469 1.640625 C 39.366923 1.7453341 39.874876 1.8630362 40.376953 1.9921875 C 40.378177 1.9925023 40.379636 1.9918726 40.380859 1.9921875 C 40.882919 2.1213988 41.379066 2.2630168 41.871094 2.4160156 C 42.753217 2.6903168 43.615949 3.0076424 44.462891 3.3554688 C 45.037895 3.5916181 45.606733 3.8388291 46.164062 4.1074219 C 46.184545 4.1172924 46.204152 4.1287584 46.224609 4.1386719 C 46.785863 4.4106634 47.334915 4.7021343 47.876953 5.0058594 C 48.642564 5.4347808 49.390861 5.8896047 50.115234 6.3789062 C 50.116433 6.3797157 50.117942 6.3800497 50.119141 6.3808594 C 50.536817 6.6630759 50.94654 6.9564116 51.349609 7.2578125 C 51.35076 7.2586733 51.352365 7.2589047 51.353516 7.2597656 C 51.756551 7.5612261 52.153243 7.8714153 52.541016 8.1914062 C 52.541721 8.1919883 52.542264 8.1927772 52.542969 8.1933594 C 52.931104 8.5137061 53.311408 8.8433817 53.683594 9.1816406 C 53.684273 9.1822583 53.684868 9.1829761 53.685547 9.1835938 C 54.057701 9.5218832 54.421795 9.869064 54.777344 10.224609 L 54.779297 10.226562 C 55.134815 10.582139 55.482055 10.946183 55.820312 11.318359 C 56.068577 11.591566 56.306261 11.874404 56.544922 12.15625 C 56.631808 12.258847 56.723004 12.357219 56.808594 12.460938 C 56.809763 12.462355 56.811331 12.463426 56.8125 12.464844 C 57.132165 12.852351 57.442983 13.247651 57.744141 13.650391 C 57.744996 13.651535 57.745239 13.653153 57.746094 13.654297 C 58.349623 14.461771 58.91617 15.299314 59.441406 16.164062 C 59.442159 16.165302 59.442607 16.166729 59.443359 16.167969 C 59.705543 16.599686 59.957534 17.037413 60.199219 17.482422 C 60.200183 17.484197 60.200208 17.486506 60.201172 17.488281 C 60.442498 17.932835 60.674311 18.382682 60.894531 18.839844 C 60.895416 18.841681 60.8956 18.843865 60.896484 18.845703 C 61.116617 19.302912 61.327017 19.767165 61.525391 20.236328 C 61.526189 20.238217 61.526545 20.240298 61.527344 20.242188 C 61.924762 21.182642 62.277886 22.146317 62.583984 23.130859 C 62.584597 23.132829 62.585325 23.134749 62.585938 23.136719 C 62.738565 23.627983 62.878906 24.12374 63.007812 24.625 C 63.008327 24.627 63.009252 24.62886 63.009766 24.630859 C 63.138583 25.132178 63.254934 25.637775 63.359375 26.148438 C 63.359915 26.151075 63.360789 26.153612 63.361328 26.15625 C 63.391127 26.302143 63.411677 26.451036 63.439453 26.597656 C 63.509325 26.966336 63.579806 27.333916 63.636719 27.707031 C 63.715835 28.225971 63.784409 28.750382 63.837891 29.277344 C 63.838153 29.279924 63.837629 29.282576 63.837891 29.285156 C 63.891247 29.812163 63.931915 30.342576 63.958984 30.876953 C 63.959117 30.879561 63.958853 30.882157 63.958984 30.884766 C 63.985926 31.419198 64 31.956895 64 32.498047 L 64 32.505859 C 63.999903 33.047005 63.986022 33.584713 63.958984 34.119141 C 63.958853 34.121727 63.959116 34.124367 63.958984 34.126953 C 63.950016 34.303355 63.929825 34.476721 63.917969 34.652344 C 63.893698 35.011594 63.87214 35.372677 63.835938 35.728516 C 63.813574 35.948327 63.780761 36.164365 63.753906 36.382812 C 63.716436 36.687647 63.682828 36.994804 63.636719 37.296875 C 63.579773 37.669936 63.509359 38.037623 63.439453 38.40625 C 63.411643 38.552901 63.391163 38.701733 63.361328 38.847656 C 63.360793 38.850271 63.35991 38.852854 63.359375 38.855469 C 63.254398 39.368177 63.135397 39.877576 63.005859 40.380859 C 62.876322 40.884142 62.735471 41.381801 62.582031 41.875 C 62.429448 42.365407 62.265418 42.850286 62.089844 43.330078 C 62.01417 43.536892 61.927515 43.738604 61.847656 43.943359 C 61.741166 44.216376 61.639215 44.492469 61.525391 44.761719 C 61.444246 44.953665 61.35435 45.1401 61.269531 45.330078 C 60.769012 46.451271 60.207073 47.538668 59.583984 48.585938 C 59.535255 48.66783 59.490855 48.752574 59.441406 48.833984 C 59.4399 48.836465 59.439007 48.839317 59.4375 48.841797 C 59.175902 49.272214 58.904375 49.69478 58.623047 50.111328 C 58.468137 50.340742 58.303318 50.562055 58.142578 50.787109 C 58.009476 50.973447 57.881173 51.164374 57.744141 51.347656 C 57.742736 51.349535 57.74164 51.351637 57.740234 51.353516 C 57.4393 51.75583 57.129949 52.149999 56.810547 52.537109 C 56.808802 52.539224 56.806433 52.540855 56.804688 52.542969 C 56.48545 52.929674 56.157337 53.308813 55.820312 53.679688 C 55.81846 53.681726 55.816306 53.683509 55.814453 53.685547 C 55.477338 54.056327 55.131594 54.419139 54.777344 54.773438 L 54.771484 54.779297 C 54.417142 55.133502 54.05442 55.479334 53.683594 55.816406 C 53.68155 55.818264 53.679778 55.820408 53.677734 55.822266 C 53.306814 56.159247 52.927768 56.487444 52.541016 56.806641 C 52.53889 56.808395 52.537282 56.810746 52.535156 56.8125 C 52.148307 57.131607 51.753593 57.441519 51.351562 57.742188 C 51.296635 57.783268 51.238798 57.820599 51.183594 57.861328 C 50.426316 58.420018 49.644914 58.94911 48.837891 59.439453 C 48.835884 59.440673 48.834039 59.44214 48.832031 59.443359 C 48.401016 59.70511 47.963796 59.955941 47.519531 60.197266 C 47.517469 60.198386 47.515734 60.200052 47.513672 60.201172 C 47.06933 60.442411 46.617096 60.672419 46.160156 60.892578 C 46.158053 60.893591 46.1564 60.895472 46.154297 60.896484 C 45.697282 61.116555 45.234587 61.325102 44.765625 61.523438 C 44.379452 61.68676 43.987622 61.838146 43.59375 61.986328 C 43.507102 62.018924 43.422947 62.056039 43.335938 62.087891 C 43.334011 62.088596 43.332005 62.089139 43.330078 62.089844 C 42.847607 62.266355 42.358438 62.432678 41.865234 62.585938 C 41.373913 62.738635 40.878275 62.878835 40.376953 63.007812 C 40.374954 63.008327 40.373093 63.009252 40.371094 63.009766 C 39.869711 63.138654 39.362293 63.254862 38.851562 63.359375 C 38.849549 63.359787 38.847717 63.360917 38.845703 63.361328 C 38.334913 63.46575 37.820267 63.557328 37.300781 63.636719 C 36.977015 63.686199 36.649204 63.722167 36.322266 63.761719 C 35.06888 63.913255 33.796352 64.000026 32.501953 64 C 31.956073 64 31.414041 63.986389 30.875 63.958984 C 30.339293 63.931805 29.807597 63.891487 29.279297 63.837891 C 29.278005 63.83776 29.276682 63.838022 29.275391 63.837891 C 28.747115 63.784232 28.223339 63.716138 27.703125 63.636719 C 27.701853 63.636525 27.70049 63.636913 27.699219 63.636719 C 27.17839 63.55714 26.66248 63.46412 26.150391 63.359375 C 26.149766 63.359247 26.149062 63.359503 26.148438 63.359375 C 25.63698 63.254727 25.129037 63.13691 24.626953 63.007812 C 24.625736 63.0075 24.624263 63.008126 24.623047 63.007812 C 24.120371 62.878498 23.623482 62.737151 23.130859 62.583984 C 23.130268 62.583801 23.129497 62.584168 23.128906 62.583984 C 22.876984 62.50564 22.630022 62.414531 22.380859 62.330078 C 22.141791 62.249043 21.900511 62.174469 21.664062 62.087891 C 21.182388 61.91155 20.706645 61.72425 20.236328 61.525391 C 20.235533 61.525054 20.235171 61.523774 20.234375 61.523438 C 19.763849 61.324445 19.300297 61.115407 18.841797 60.894531 C 18.841274 60.894279 18.840367 60.894783 18.839844 60.894531 C 18.604951 60.781359 18.376137 60.655895 18.144531 60.537109 C 17.923368 60.423683 17.698556 60.315731 17.480469 60.197266 C 17.034944 59.955257 16.596264 59.703959 16.164062 59.441406 C 16.163294 59.440939 16.162878 59.43992 16.162109 59.439453 C 15.729173 59.176403 15.303672 58.904102 14.884766 58.621094 C 14.465367 58.337802 14.053114 58.04482 13.648438 57.742188 C 13.331158 57.5049 13.022711 57.256628 12.714844 57.007812 C 12.630406 56.93957 12.542698 56.875734 12.458984 56.806641 C 12.070822 56.486278 11.690574 56.156639 11.318359 55.818359 C 11.317678 55.81774 11.317088 55.817026 11.316406 55.816406 C 10.944223 55.478096 10.58019 55.130962 10.224609 54.775391 L 10.222656 54.773438 C 9.8671068 54.417835 9.5199308 54.053847 9.1816406 53.681641 C 9.181023 53.680961 9.180305 53.680367 9.1796875 53.679688 C 8.8414278 53.307449 8.5117502 52.927249 8.1914062 52.539062 C 8.1908252 52.538358 8.1900341 52.537814 8.1894531 52.537109 C 7.8685577 52.148186 7.5581144 51.751927 7.2558594 51.347656 C 6.6509376 50.538653 6.0848948 49.700489 5.5585938 48.833984 C 5.2955955 48.400994 5.0431632 47.961986 4.8007812 47.515625 C 4.5580939 47.068739 4.3268264 46.615878 4.1054688 46.15625 C 3.8843618 45.697176 3.6737827 45.232847 3.4746094 44.761719 C 3.2751835 44.290021 3.0869303 43.813198 2.9101562 43.330078 C 2.7335752 42.847554 2.5693458 42.360448 2.4160156 41.867188 C 2.2624951 41.373323 2.1197816 40.87506 1.9902344 40.371094 C 1.8608137 39.867755 1.7435244 39.360415 1.6386719 38.847656 C 1.428853 37.821513 1.2695563 36.778653 1.1621094 35.71875 C 1.1083691 35.189128 1.0682118 34.656207 1.0410156 34.119141 C 1.0138426 33.582078 0.99996458 33.041892 1 32.498047 C 1.0000773 31.9548 1.0137969 31.413425 1.0410156 30.876953 C 1.0410487 30.876301 1.0409826 30.875652 1.0410156 30.875 C 1.0682663 30.338542 1.1083752 29.80637 1.1621094 29.277344 C 1.1621748 29.276699 1.1620439 29.276036 1.1621094 29.275391 C 1.2159407 28.745731 1.2835614 28.22077 1.3632812 27.699219 C 1.443019 27.177101 1.5355967 26.659818 1.640625 26.146484 C 1.7454467 25.634325 1.8628545 25.127756 1.9921875 24.625 C 1.9923439 24.624392 1.992031 24.623655 1.9921875 24.623047 C 2.1215511 24.120298 2.2627977 23.621595 2.4160156 23.128906 C 2.4161994 23.128315 2.4158318 23.127544 2.4160156 23.126953 C 2.467855 22.960293 2.5294657 22.798271 2.5839844 22.632812 C 2.6908467 22.308446 2.7950919 21.983667 2.9121094 21.664062 C 3.0885031 21.182328 3.2756956 20.704746 3.4746094 20.234375 C 3.4749457 20.23358 3.4762261 20.233217 3.4765625 20.232422 C 3.6755044 19.76209 3.8846654 19.298156 4.1054688 18.839844 C 4.1058494 18.839054 4.1070412 18.838681 4.1074219 18.837891 C 4.3282544 18.379614 4.5587454 17.92607 4.8007812 17.480469 C 4.8012064 17.479686 4.8023092 17.479298 4.8027344 17.478516 C 5.2457587 16.663045 5.7273495 15.87147 6.2382812 15.101562 C 6.2858664 15.029858 6.3307512 14.956056 6.3789062 14.884766 C 6.3797128 14.883572 6.3800526 14.882053 6.3808594 14.880859 C 6.4999128 14.704661 6.6274989 14.534961 6.75 14.361328 C 6.9188889 14.121978 7.084434 13.880848 7.2597656 13.646484 C 8.1668554 12.433771 9.1595952 11.289304 10.228516 10.220703 C 10.583838 9.8654867 10.946465 9.5176707 11.318359 9.1796875 C 11.319404 9.1787382 11.321221 9.1786836 11.322266 9.1777344 C 11.693876 8.8400987 12.073438 8.5111856 12.460938 8.1914062 C 12.462347 8.1902431 12.463434 8.1886629 12.464844 8.1875 C 12.630886 8.0505244 12.803783 7.9226746 12.972656 7.7890625 C 13.199216 7.609835 13.42275 7.4269734 13.654297 7.2539062 C 14.057466 6.9525308 14.468945 6.6591335 14.886719 6.3769531 C 14.887918 6.3761431 14.889426 6.3758099 14.890625 6.375 C 15.308432 6.0928804 15.732308 5.8208641 16.164062 5.5585938 C 16.165303 5.5578405 16.166728 5.5573937 16.167969 5.5566406 C 16.599762 5.2944286 17.039289 5.0424892 17.484375 4.8007812 C 17.485653 4.8000872 17.487003 4.799522 17.488281 4.7988281 C 18.379815 4.3148338 19.297365 3.8724097 20.238281 3.4746094 C 20.239615 3.4740456 20.240854 3.4732198 20.242188 3.4726562 C 20.712016 3.2740995 21.186812 3.0862428 21.667969 2.9101562 C 21.669319 2.9096622 21.670525 2.908697 21.671875 2.9082031 C 22.153079 2.7321756 22.640935 2.5689165 23.132812 2.4160156 C 23.134175 2.415592 23.135356 2.414486 23.136719 2.4140625 C 23.628643 2.261222 24.12501 2.1212447 24.626953 1.9921875 C 24.628318 1.9918365 24.629494 1.9905852 24.630859 1.9902344 C 25.132855 1.8612374 25.640983 1.7451812 26.152344 1.640625 C 27.005669 1.4661334 27.873014 1.3344964 28.75 1.2304688 C 29.980996 1.0844487 31.231526 1 32.501953 1 z M 32.503906 7.0195312 L 32.037109 8.2402344 L 32.037109 8.2421875 C 32.037109 8.2421882 32.035157 8.2421865 32.035156 8.2421875 C 32.035156 8.2421875 31.866321 8.6581893 31.753906 8.9375 C 31.677321 9.12775 31.685132 9.1139901 31.5625 9.4101562 C 31.562065 9.4112075 31.562936 9.4110569 31.5625 9.4121094 C 31.258905 10.145286 30.822365 11.173474 30.287109 12.357422 C 30.189142 12.574172 30.071111 12.816682 29.966797 13.042969 C 29.59677 13.84546 29.193149 14.689532 28.755859 15.5625 C 28.642537 15.788728 28.538887 16.008624 28.421875 16.236328 C 28.260368 16.550715 28.085729 16.861626 27.917969 17.175781 C 27.724349 17.538253 27.536604 17.902654 27.335938 18.259766 C 27.335657 18.260265 27.336218 18.261219 27.335938 18.261719 C 26.961662 18.927738 26.575507 19.578876 26.183594 20.199219 C 24.529757 19.831323 22.946575 19.417737 21.650391 19.0625 C 21.497789 19.020678 21.303015 18.971385 21.160156 18.931641 C 21.159071 18.931338 21.159288 18.931943 21.158203 18.931641 C 19.802829 18.554547 18.911587 18.279736 18.910156 18.279297 L 18.908203 18.279297 L 17.996094 17.990234 L 17.990234 17.988281 L 18.246094 18.794922 L 18.279297 18.904297 L 18.28125 18.908203 C 18.564387 19.82239 18.816523 20.745137 19.068359 21.667969 C 19.195215 22.131273 19.326405 22.618561 19.464844 23.152344 C 19.721707 24.158969 19.970769 25.167322 20.197266 26.181641 C 19.577714 26.57274 18.926895 26.95844 18.261719 27.332031 C 18.260432 27.332754 18.259099 27.333262 18.257812 27.333984 C 17.592564 27.707544 16.91403 28.068907 16.238281 28.416016 C 16.236994 28.416677 16.235662 28.417308 16.234375 28.417969 C 15.558675 28.764999 14.88545 29.096564 14.234375 29.408203 C 14.233611 29.408569 14.233186 29.409791 14.232422 29.410156 C 13.884076 29.57688 13.564048 29.720373 13.230469 29.875 C 12.939593 30.009835 12.633249 30.156587 12.357422 30.28125 C 9.9888254 31.35174 8.2402344 32.03125 8.2402344 32.03125 L 7.0234375 32.498047 L 7.0195312 32.5 L 8.2402344 32.966797 C 8.2402344 32.966797 10.655489 33.910227 13.638672 35.310547 C 13.840509 35.405337 14.025776 35.488934 14.232422 35.587891 C 14.885275 35.900354 15.558669 36.231967 16.236328 36.580078 C 16.913209 36.928003 17.593452 37.291436 18.259766 37.666016 C 18.260265 37.666296 18.261219 37.665735 18.261719 37.666016 C 18.927515 38.040333 19.577233 38.426369 20.197266 38.818359 C 19.37451 42.518426 18.275391 46.095703 18.275391 46.095703 L 17.984375 47.013672 L 18.810547 46.751953 L 18.904297 46.722656 L 18.90625 46.722656 C 19.805598 46.443922 20.713361 46.195672 21.621094 45.947266 C 22.112864 45.812654 22.633254 45.673066 23.205078 45.525391 C 24.127528 45.290399 25.051519 45.060965 25.980469 44.851562 C 26.046417 44.836696 26.111757 44.819434 26.177734 44.804688 C 29.314512 49.770044 32.029297 56.761719 32.029297 56.761719 L 32.496094 57.982422 L 32.5 57.972656 L 32.501953 57.978516 L 32.96875 56.759766 C 32.96875 56.759766 33.137959 56.322491 33.439453 55.59375 C 33.743667 54.859944 34.182102 53.828391 34.71875 52.642578 C 34.731296 52.614816 34.747112 52.582618 34.759766 52.554688 C 35.827831 50.200382 37.271314 47.258537 38.820312 44.806641 C 42.517367 45.629181 46.089844 46.726562 46.089844 46.726562 L 47.009766 47.017578 L 47.007812 47.011719 L 47.015625 47.013672 L 46.724609 46.09375 C 46.724609 46.09375 45.628628 42.518017 44.806641 38.820312 C 47.201256 37.307079 50.055497 35.899558 52.380859 34.839844 C 52.463615 34.80213 52.557331 34.757504 52.638672 34.720703 C 52.641887 34.719251 52.643271 34.718248 52.646484 34.716797 C 55.010929 33.648955 56.757812 32.972656 56.757812 32.972656 L 56.755859 32.96875 C 56.75588 32.968742 56.761719 32.966797 56.761719 32.966797 L 57.982422 32.5 L 56.763672 32.03125 C 56.763672 32.03125 49.771701 29.31345 44.806641 26.177734 C 45.62785 22.483952 46.720648 18.918657 46.722656 18.912109 L 46.724609 18.908203 L 47.013672 17.992188 L 47.015625 17.988281 L 46.097656 18.279297 C 46.097656 18.279297 42.522074 19.377309 38.822266 20.201172 C 35.687918 15.235701 32.972656 8.2402344 32.972656 8.2402344 L 32.503906 7.0195312 z M 32.501953 9.7109375 C 32.874055 10.653498 33.857899 13.104063 35.248047 15.900391 C 35.248448 15.901198 35.249599 15.901537 35.25 15.902344 C 35.805977 17.020606 36.42677 18.193699 37.099609 19.347656 C 37.436259 19.92503 37.785505 20.498294 38.146484 21.056641 C 38.146968 21.057389 38.147954 21.057845 38.148438 21.058594 L 38.333984 21.345703 L 38.333984 21.347656 L 38.671875 21.275391 C 42.202033 20.520848 44.846298 19.678011 45.544922 19.460938 C 45.435984 19.811339 45.171584 20.644438 44.839844 21.832031 C 44.839266 21.834094 44.838469 21.833873 44.837891 21.835938 C 44.504954 23.025478 44.103396 24.568696 43.726562 26.333984 L 43.654297 26.671875 L 43.943359 26.859375 C 48.406119 29.743677 53.773621 31.90651 55.285156 32.503906 C 54.527956 32.802918 52.815852 33.489724 50.732422 34.462891 C 50.73004 34.464002 50.728945 34.465685 50.726562 34.466797 C 50.206117 34.709951 49.662513 34.969047 49.105469 35.246094 C 49.103308 35.247167 49.10177 35.248926 49.099609 35.25 C 48.933497 35.332637 48.760096 35.426258 48.591797 35.511719 C 47.628797 36.000228 46.639168 36.526106 45.658203 37.097656 C 45.655672 37.099131 45.652921 37.100087 45.650391 37.101562 C 45.07297 37.43813 44.499804 37.787537 43.941406 38.148438 L 43.732422 38.285156 L 43.660156 38.330078 L 43.652344 38.335938 L 43.724609 38.673828 C 44.478153 42.200002 45.320767 44.840088 45.539062 45.542969 C 44.834979 45.323825 42.1969 44.480472 38.671875 43.728516 L 38.333984 43.65625 L 38.332031 43.660156 L 38.330078 43.660156 L 38.251953 43.785156 L 38.146484 43.945312 C 37.784404 44.505362 37.435253 45.080992 37.097656 45.660156 C 36.425542 46.813201 35.803467 47.984317 35.248047 49.101562 C 35.247776 49.102108 35.248318 49.10297 35.248047 49.103516 C 35.247666 49.104281 35.246475 49.104704 35.246094 49.105469 C 33.856975 51.896366 32.873839 54.341378 32.5 55.287109 C 31.902815 53.775485 29.741085 48.41043 26.857422 43.947266 L 26.667969 43.654297 L 26.330078 43.728516 C 26.27378 43.74086 26.218375 43.757047 26.162109 43.769531 C 22.739138 44.508518 20.179239 45.31882 19.476562 45.537109 C 19.470651 45.53888 19.464895 45.541197 19.458984 45.542969 C 19.676796 44.842673 20.52232 42.197522 21.275391 38.667969 L 21.347656 38.330078 L 21.058594 38.144531 C 19.941421 37.422703 18.767197 36.746937 17.611328 36.128906 C 17.610017 36.128205 17.608733 36.127654 17.607422 36.126953 C 17.030238 35.818116 16.459347 35.524085 15.900391 35.246094 C 15.899845 35.245823 15.898983 35.246365 15.898438 35.246094 C 15.379269 34.987906 14.87467 34.746422 14.386719 34.517578 C 14.348578 34.499704 14.307432 34.478624 14.269531 34.460938 C 13.224496 33.972891 12.273742 33.55812 11.488281 33.226562 C 10.703242 32.895381 10.086075 32.648797 9.7089844 32.5 C 10.840266 32.053441 14.142452 30.723822 17.607422 28.871094 C 17.608688 28.870417 17.610061 28.869818 17.611328 28.869141 C 18.187976 28.56075 18.769453 28.238104 19.345703 27.902344 C 19.346958 27.901613 19.348355 27.901122 19.349609 27.900391 C 19.927104 27.563836 20.500186 27.214234 21.058594 26.853516 L 21.347656 26.667969 L 21.275391 26.330078 C 20.520345 22.800026 19.676157 20.155625 19.458984 19.457031 C 19.80833 19.565784 20.644396 19.831295 21.833984 20.164062 C 21.834882 20.164314 21.835039 20.163811 21.835938 20.164062 C 22.430356 20.330327 23.112602 20.514694 23.867188 20.703125 C 23.867865 20.703294 23.868463 20.702956 23.869141 20.703125 C 24.623944 20.891591 25.450024 21.085288 26.332031 21.273438 C 26.332695 21.273579 26.333321 21.273296 26.333984 21.273438 L 26.669922 21.345703 L 26.671875 21.345703 L 26.857422 21.056641 C 27.217869 20.498761 27.56804 19.926498 27.904297 19.349609 C 27.904586 19.349114 27.904008 19.348151 27.904297 19.347656 C 28.240812 18.77028 28.564068 18.189085 28.873047 17.611328 C 29.390703 16.643516 29.855288 15.699655 30.283203 14.800781 C 30.366064 14.626724 30.459913 14.44295 30.539062 14.273438 C 30.539349 14.272825 30.538777 14.272097 30.539062 14.271484 C 31.026845 13.226763 31.44388 12.2757 31.775391 11.490234 C 31.775702 11.489496 31.775079 11.489019 31.775391 11.488281 C 31.910632 11.16783 31.966132 11.021526 32.072266 10.761719 C 32.22572 10.386196 32.414041 9.9334821 32.501953 9.7109375 z M 32.503906 20.205078 L 32.035156 21.421875 L 32.035156 21.423828 C 32.034661 21.425122 31.914092 21.739732 31.703125 22.244141 C 31.70252 22.245587 31.701778 22.244645 31.701172 22.246094 C 31.489811 22.751377 31.189124 23.444548 30.830078 24.195312 C 30.829644 24.19622 30.82856 24.196358 30.828125 24.197266 C 30.648685 24.572399 30.453379 24.962597 30.248047 25.349609 C 30.247629 25.350397 30.246512 25.350775 30.246094 25.351562 C 30.040723 25.73856 29.826728 26.122674 29.607422 26.486328 C 29.492241 26.677211 29.374292 26.840475 29.257812 27.017578 C 29.152073 27.178348 29.046886 27.354624 28.941406 27.5 C 28.940614 27.501093 28.940246 27.502814 28.939453 27.503906 C 28.718639 27.807944 28.499929 28.074543 28.289062 28.285156 C 28.287923 28.286298 28.286295 28.287924 28.285156 28.289062 C 28.073876 28.499811 27.80814 28.718696 27.503906 28.939453 C 27.357358 29.045834 27.179771 29.151173 27.017578 29.257812 C 26.841145 29.373838 26.678368 29.490765 26.488281 29.605469 C 26.487469 29.605959 26.487141 29.606932 26.486328 29.607422 C 26.122423 29.826946 25.738648 30.0406 25.351562 30.246094 C 25.350772 30.246513 25.3504 30.247628 25.349609 30.248047 C 25.157502 30.350009 24.968665 30.438874 24.777344 30.535156 C 24.582534 30.633156 24.384865 30.737491 24.195312 30.828125 C 23.588186 31.118421 23.081952 31.335543 22.619141 31.533203 C 22.510254 31.579666 22.344199 31.659057 22.248047 31.699219 C 22.247013 31.699651 22.245172 31.700741 22.244141 31.701172 C 21.743495 31.910176 21.425781 32.03125 21.425781 32.03125 C 21.425766 32.031256 21.421875 32.033203 21.421875 32.033203 L 20.205078 32.498047 L 20.201172 32.5 L 21.421875 32.966797 L 21.423828 32.966797 C 21.426414 32.967786 22.693821 33.452902 24.195312 34.171875 C 24.195939 34.172175 24.196639 34.171575 24.197266 34.171875 C 24.572555 34.351603 24.962473 34.548016 25.349609 34.753906 C 25.350133 34.754184 25.351039 34.753628 25.351562 34.753906 C 26.514013 35.37222 27.650068 36.083418 28.285156 36.71875 C 29.132309 37.566226 30.106961 39.305213 30.826172 40.808594 C 31.545382 42.311973 32.03125 43.582031 32.03125 43.582031 L 32.5 44.802734 L 32.501953 44.798828 L 32.966797 43.582031 C 32.966797 43.582031 33.088993 43.263081 33.300781 42.755859 C 33.512114 42.250392 33.814081 41.556251 34.173828 40.804688 C 34.533575 40.053124 34.958064 39.242332 35.398438 38.513672 C 35.617642 38.150967 35.839424 37.808588 36.060547 37.503906 C 36.061742 37.502261 36.063258 37.501643 36.064453 37.5 C 36.285353 37.195939 36.504058 36.930025 36.714844 36.71875 C 36.715985 36.717607 36.71761 36.715984 36.71875 36.714844 C 36.929138 36.504476 37.194962 36.284819 37.498047 36.064453 C 37.499822 36.063165 37.502129 36.061835 37.503906 36.060547 C 37.80783 35.839921 38.149756 35.617158 38.511719 35.398438 C 38.513676 35.397256 38.51562 35.395712 38.517578 35.394531 C 38.774209 35.239593 39.047546 35.092226 39.318359 34.943359 C 39.431841 34.881042 39.539874 34.814631 39.654297 34.753906 C 39.656393 34.752793 39.65806 34.751113 39.660156 34.75 C 40.04462 34.546089 40.432125 34.354018 40.804688 34.175781 C 41.556421 33.816145 42.248438 33.513996 42.753906 33.302734 C 43.259374 33.091473 43.578125 32.970703 43.578125 32.970703 L 43.578125 32.96875 C 43.57814 32.968744 43.582031 32.966797 43.582031 32.966797 L 44.802734 32.498047 L 43.582031 32.03125 C 43.582031 32.03125 42.31185 31.547026 40.808594 30.828125 C 39.305337 30.109224 37.566041 29.132365 36.71875 28.285156 L 36.716797 28.285156 C 35.869784 27.439112 34.893313 25.698679 34.173828 24.195312 C 33.83925 23.49621 33.569438 22.874803 33.361328 22.380859 C 33.346133 22.344793 33.317111 22.282423 33.302734 22.248047 C 33.301699 22.245568 33.301812 22.246611 33.300781 22.244141 C 33.090485 21.741184 32.971888 21.42888 32.970703 21.425781 L 32.96875 21.421875 L 32.503906 20.205078 z M 32.501953 22.857422 C 32.713184 23.375894 32.810594 23.668936 33.269531 24.628906 C 34.00718 26.171929 34.96283 27.950711 36.007812 28.996094 C 37.051941 30.041772 38.830098 30.994252 40.373047 31.732422 C 41.331177 32.190806 41.626897 32.29186 42.142578 32.501953 C 41.627919 32.711759 41.332805 32.812089 40.376953 33.269531 C 39.603906 33.63949 38.771574 34.06459 38.001953 34.527344 C 37.235516 34.988183 36.531267 35.486362 36.009766 36.007812 C 36.008809 36.008769 36.008769 36.010761 36.007812 36.011719 C 35.89986 36.119816 35.793342 36.238685 35.6875 36.361328 C 35.281618 36.830804 34.893185 37.396197 34.527344 38.003906 C 34.064344 38.773007 33.637268 39.604197 33.267578 40.376953 C 32.810203 41.332996 32.709666 41.627984 32.5 42.142578 C 32.289981 41.627047 32.190663 41.331065 31.732422 40.373047 C 30.994481 38.830276 30.041327 37.052944 28.996094 36.007812 C 27.951858 34.963679 26.172033 34.008165 24.628906 33.269531 C 23.669106 32.810114 23.376063 32.7117 22.857422 32.5 C 23.375465 32.288857 23.668806 32.188619 24.626953 31.730469 C 25.399672 31.360995 26.231047 30.938531 27 30.476562 C 27.382863 30.246482 27.748978 30.00695 28.085938 29.759766 C 28.087118 29.758899 28.088664 29.758679 28.089844 29.757812 C 28.257272 29.634892 28.417855 29.509227 28.568359 29.382812 C 28.569818 29.381586 28.570809 29.380133 28.572266 29.378906 C 28.722498 29.252549 28.862572 29.125452 28.992188 28.996094 C 28.993443 28.994838 28.994838 28.993445 28.996094 28.992188 C 29.125528 28.862909 29.252545 28.722194 29.378906 28.572266 C 29.380046 28.57091 29.381673 28.569716 29.382812 28.568359 C 29.509228 28.418146 29.634943 28.257018 29.757812 28.089844 C 29.75884 28.088444 29.760691 28.087339 29.761719 28.085938 C 30.008579 27.749697 30.246866 27.382225 30.476562 27 C 30.707719 26.615345 30.928729 26.215312 31.138672 25.814453 C 31.139087 25.813662 31.14021 25.813291 31.140625 25.8125 C 31.349651 25.413304 31.546293 25.013965 31.730469 24.628906 C 31.730984 24.627831 31.731908 24.628027 31.732422 24.626953 C 31.961322 24.148324 32.100624 23.836014 32.208984 23.578125 C 32.209592 23.576681 32.210332 23.57566 32.210938 23.574219 C 32.231247 23.525858 32.247101 23.484671 32.265625 23.439453 C 32.345403 23.244895 32.416454 23.0668 32.501953 22.857422 z " />
</svg>
