<svg xmlns="http://www.w3.org/2000/svg" viewBox="0 0 65 65"><path d="M32.502.5C14.828.5.5 14.826.5 32.499.499 50.172 14.827 64.5 32.502 64.5c17.674-.002 32-14.33 31.998-32.001C64.5 14.828 50.175.502 32.502.5m0 7.922s2.8 7.31 6.065 12.362c3.938-.842 7.68-2.027 7.68-2.027s-1.185 3.74-2.025 7.677c5.052 3.264 12.362 6.065 12.362 6.065s-7.31 2.799-12.362 6.065c.84 3.936 2.026 7.682 2.026 7.682s-3.743-1.188-7.68-2.028C35.3 49.27 32.501 56.58 32.501 56.58s-2.801-7.31-6.065-12.362a94 94 0 0 0-7.679 2.028s1.188-3.746 2.028-7.682c-5.054-3.266-12.368-6.065-12.368-6.065s7.316-2.801 12.368-6.065c-.842-3.937-2.028-7.677-2.028-7.677s3.742 1.187 7.679 2.027c3.264-5.051 6.065-12.362 6.065-12.362m0 13.18s-1.967 5.147-3.86 7.037c-1.893 1.893-7.039 3.86-7.039 3.86s5.149 1.971 7.039 3.862c1.893 1.892 3.86 7.038 3.86 7.038s1.97-5.146 3.862-7.038 7.039-3.862 7.039-3.862-5.146-1.967-7.039-3.86c-1.892-1.89-3.862-7.038-3.862-7.038" class="fill"/><path d="m32.502 0-.082.002a33 33 0 0 0-2.986.146q-.364.036-.725.08c-.387.046-.774.088-1.156.147a32 32 0 0 0-3.168.646l-.004.002q-.777.2-1.537.436l-.004.002q-.762.237-1.506.51c-.233.085-.46.18-.69.271-.262.103-.527.201-.787.31l-.003.003q-1.458.616-2.838 1.367c-.07.037-.136.079-.205.117q-.589.322-1.16.668-.669.404-1.315.842l-.004.002q-.645.437-1.27.904l-.003.002a33 33 0 0 0-1.225.963l-.004.002q-.6.495-1.176 1.02l-.004.001q-.575.525-1.125 1.075a33 33 0 0 0-2.1 2.308c-.09.11-.174.225-.263.336-.237.295-.474.588-.701.89l-.002.005q-.467.624-.904 1.271l-.002.002q-.438.647-.844 1.316l-.002.002a33 33 0 0 0-1.465 2.692l-.035.068-.002.004q-.341.708-.648 1.436l-.002.004q-.307.727-.58 1.472l-.002.002a32 32 0 0 0-1.555 5.98c-.013.082-.03.161-.043.243A32.5 32.5 0 0 0 0 32.498a33 33 0 0 0 .66 6.547v.002a32.3 32.3 0 0 0 1.895 6.098 32 32 0 0 0 1.369 2.841c.091.169.19.332.285.498q.481.85 1.012 1.668c.11.171.216.345.33.514a33 33 0 0 0 1.87 2.502l.003.002q.495.6 1.02 1.178l.001.002q.525.576 1.075 1.127l.001.002q.55.55 1.127 1.074l.002.002q.578.523 1.178 1.02l.002.001a33 33 0 0 0 1.97 1.494c.178.125.35.256.53.377h.002q.647.439 1.316.846h.002q.67.406 1.36.781c.225.123.455.235.683.352.24.122.475.25.717.367h.002q.71.342 1.438.65l.004.002q.727.308 1.472.58l.002.002q.746.273 1.508.51c.284.088.572.166.86.246.227.064.451.134.681.194h.004q.776.2 1.568.36c.34.07.685.127 1.03.186.19.033.378.073.57.102h.004q.805.124 1.623.207h.004a33 33 0 0 0 3.322.168 32.6 32.6 0 0 0 5.643-.5c.3-.053.603-.1.9-.16l.006-.002q.79-.162 1.566-.361l.006-.002a32 32 0 0 0 1.535-.436l.006-.002.02-.006a32 32 0 0 0 4.4-1.734l.006-.004q.707-.341 1.394-.715l.006-.004a32.5 32.5 0 0 0 3.947-2.53l.008-.005q.623-.465 1.221-.959l.006-.006q.598-.495 1.174-1.015l.006-.006q.573-.522 1.123-1.07l.005-.006q.55-.549 1.07-1.123l.007-.006a33 33 0 0 0 1.015-1.172l.006-.008q.494-.599.96-1.22l.005-.009q.465-.621.9-1.265l.006-.008q.435-.645.84-1.31l.006-.008q.404-.667.777-1.354c.158-.29.306-.588.455-.885.087-.172.18-.341.264-.515l.004-.01q.34-.705.646-1.43l.004-.01q.308-.724.58-1.466l.002-.008c.064-.175.119-.353.18-.53.112-.323.226-.644.328-.972.107-.343.201-.692.297-1.04.046-.167.1-.332.143-.501l.002-.01q.199-.774.36-1.562l.003-.01q.16-.788.283-1.59l.002-.01q.123-.802.205-1.617c.039-.38.062-.766.088-1.15.011-.167.03-.332.039-.5v-.008a33 33 0 0 0-.125-4.986v-.008a33 33 0 0 0-.492-3.219 32 32 0 0 0-1.31-4.623l-.003-.006a32 32 0 0 0-.58-1.47q0-.004-.002-.006a32 32 0 0 0-.648-1.434l-.002-.006a32 32 0 0 0-.717-1.396l-.002-.004c-.037-.068-.078-.134-.115-.201-.216-.392-.436-.78-.668-1.16-.195-.321-.4-.633-.605-.946-.081-.123-.156-.25-.239-.373a33 33 0 0 0-.904-1.27l-.002-.003a33 33 0 0 0-.963-1.225l-.002-.004q-.495-.6-1.02-1.176l-.001-.004a33 33 0 0 0-1.075-1.125 33 33 0 0 0-1.845-1.697c-.155-.133-.304-.272-.461-.402l-.004-.002q-.6-.496-1.225-.963l-.004-.002a33 33 0 0 0-1.27-.904l-.003-.002a33 33 0 0 0-1.315-.844l-.003-.002a33 33 0 0 0-1.358-.781l-.004-.002a32.3 32.3 0 0 0-5.826-2.461 32 32 0 0 0-1.223-.348c-.107-.029-.212-.064-.32-.092a32 32 0 0 0-1.566-.36h-.004a32 32 0 0 0-1.596-.288h-.006a33 33 0 0 0-1.62-.207h-.005a33 33 0 0 0-1.646-.125h-.004A33 33 0 0 0 32.502 0m0 1q.816 0 1.621.041h.004q.803.04 1.596.121h.006q.791.082 1.572.201h.004q.78.12 1.547.278h.003q.769.157 1.522.351h.004q.752.195 1.49.424c.882.274 1.745.592 2.592.94.575.236 1.144.483 1.701.751l.06.032c.562.272 1.11.563 1.653.867q1.15.642 2.238 1.373l.004.002q.627.423 1.23.877l.005.002q.605.451 1.187.931l.002.002q.582.48 1.14.989l.003.002q.558.507 1.091 1.04l.002.003q.534.534 1.041 1.091c.249.274.486.556.725.838.087.103.178.201.264.305l.004.004q.48.581.931 1.185l.002.004a32 32 0 0 1 1.695 2.51l.002.004q.395.648.756 1.314l.002.006q.362.667.694 1.352l.001.006q.33.686.63 1.39l.001.006q.597 1.41 1.057 2.889l.002.006q.229.736.422 1.488l.002.006q.193.752.35 1.517l.001.008c.03.146.05.295.078.442.07.368.14.736.198 1.109q.12.779.2 1.57v.008q.081.79.122 1.592v.008q.04.801.041 1.613v.008q0 .812-.041 1.613v.008c-.009.176-.03.35-.041.525-.024.36-.046.72-.082 1.077-.022.22-.055.435-.082.654-.038.305-.071.612-.117.914-.057.373-.128.74-.198 1.11-.027.146-.048.295-.078.44l-.002.008a31.4 31.4 0 0 1-1.27 4.475c-.075.207-.161.409-.241.613-.107.273-.209.55-.323.819-.08.192-.17.378-.255.568a31 31 0 0 1-1.686 3.256c-.049.082-.093.167-.143.248l-.004.008q-.392.645-.814 1.27c-.155.229-.32.45-.48.675-.134.186-.262.377-.399.56l-.004.007q-.45.603-.93 1.183l-.005.006q-.48.58-.985 1.137l-.006.006q-.505.555-1.037 1.087l-.006.006q-.531.532-1.087 1.037l-.006.006q-.556.505-1.137.985l-.006.005q-.58.48-1.183.93l-.168.12a32 32 0 0 1-2.346 1.577l-.006.004q-.646.393-1.312.754l-.006.004a31 31 0 0 1-1.354.692l-.006.003q-.686.33-1.388.627c-.387.164-.778.315-1.172.463-.087.033-.171.07-.258.102l-.006.002a31 31 0 0 1-2.953.918l-.006.002q-.752.193-1.52.35l-.005.001q-.767.157-1.545.276c-.324.05-.652.085-.979.125a32 32 0 0 1-3.82.238 32 32 0 0 1-3.223-.162h-.004a32 32 0 0 1-1.572-.201H27.7q-.78-.12-1.549-.278h-.002a31 31 0 0 1-1.521-.351h-.004q-.754-.194-1.492-.424h-.002c-.252-.078-.499-.17-.748-.254-.24-.081-.48-.156-.717-.242a31 31 0 0 1-1.428-.563l-.002-.002q-.705-.298-1.392-.628h-.002c-.235-.114-.464-.24-.695-.358-.222-.113-.446-.221-.665-.34a31 31 0 0 1-1.316-.756l-.002-.002a32 32 0 0 1-2.514-1.697 32 32 0 0 1-.933-.734c-.085-.068-.172-.132-.256-.201a32 32 0 0 1-1.14-.989l-.003-.002a32 32 0 0 1-1.091-1.04l-.002-.003a32 32 0 0 1-1.041-1.091l-.002-.002a32 32 0 0 1-.989-1.14q0-.002-.002-.003a31.6 31.6 0 0 1-5.773-10.67A31.2 31.2 0 0 1 1 32.498q0-.816.041-1.621v-.002q.04-.804.121-1.598v-.002a31.5 31.5 0 0 1 .83-4.65v-.002q.194-.755.424-1.494v-.002c.052-.167.113-.329.168-.494.107-.325.211-.65.328-.969q.265-.724.563-1.43l.002-.002q.298-.705.628-1.392l.002-.002q.331-.688.694-1.358l.002-.001c.443-.816.924-1.608 1.435-2.377l.14-.217.003-.004c.119-.176.246-.346.369-.52.169-.239.334-.48.51-.715a31.7 31.7 0 0 1 4.058-4.466l.004-.002q.557-.507 1.139-.987l.004-.004c.166-.136.339-.264.508-.398.226-.18.45-.362.681-.535a32 32 0 0 1 1.233-.877l.004-.002q.625-.423 1.273-.816l.004-.002q.648-.394 1.316-.756l.004-.002a31 31 0 0 1 2.75-1.324l.004-.002q.705-.299 1.426-.563l.004-.002q.723-.264 1.46-.492l.005-.002q.738-.229 1.49-.422l.004-.002a31 31 0 0 1 1.521-.35 32 32 0 0 1 2.598-.41A32 32 0 0 1 32.502 1m.002 6.02-.467 1.22v.002h-.002l-.281.695c-.077.19-.069.177-.192.473v.002c-.303.733-.74 1.761-1.275 2.945-.098.217-.216.46-.32.686-.37.802-.774 1.647-1.211 2.52-.113.226-.217.446-.334.673-.162.315-.336.626-.504.94-.194.362-.381.727-.582 1.084v.002c-.374.666-.76 1.317-1.152 1.937a97 97 0 0 1-4.534-1.137c-.152-.041-.347-.09-.49-.13h-.002a89 89 0 0 1-2.248-.653h-.002l-.912-.289-.006-.002.256.807.033.11.002.003c.283.914.536 1.837.787 2.76a101 101 0 0 1 1.129 4.514c-.62.39-1.27.776-1.935 1.15l-.004.002a62 62 0 0 1-2.02 1.082l-.004.002c-.675.347-1.349.679-2 .99l-.002.002c-.348.167-.668.31-1.002.465-.29.135-.597.282-.873.406a93 93 0 0 1-4.117 1.75l-1.217.467-.003.002 1.22.467s2.415.943 5.399 2.344c.202.094.387.178.593.277.653.312 1.327.644 2.004.992a62 62 0 0 1 2.024 1.086h.002c.666.374 1.315.76 1.935 1.152a108 108 0 0 1-1.922 7.278l-.29.918.826-.262.093-.03h.002c.9-.278 1.807-.526 2.715-.775a103 103 0 0 1 4.36-1.096c.065-.014.13-.032.197-.046 3.137 4.965 5.851 11.957 5.851 11.957l.467 1.22.004-.01.002.007.467-1.22s.169-.437.47-1.165c.305-.734.743-1.766 1.28-2.951l.04-.088c1.069-2.355 2.512-5.296 4.061-7.748 3.697.822 7.27 1.92 7.27 1.92l.92.29-.002-.005.008.002-.291-.92s-1.096-3.576-1.918-7.274c2.394-1.513 5.248-2.92 7.574-3.98l.258-.12q.004 0 .007-.003a90 90 0 0 1 4.112-1.744l-.002-.004.006-.002 1.22-.467-1.218-.469s-6.992-2.718-11.957-5.853c.82-3.694 1.914-7.26 1.916-7.266l.002-.004.289-.916.002-.004-.918.291s-3.576 1.098-7.276 1.922c-3.134-4.965-5.85-11.96-5.85-11.96zm-.002 2.69a81 81 0 0 0 2.746 6.19l.002.002a59 59 0 0 0 1.85 3.446c.336.577.686 1.15 1.046 1.709q.002 0 .002.002l.186.287v.002l.338-.073c3.53-.754 6.174-1.597 6.873-1.814-.109.35-.373 1.183-.705 2.371l-.002.004a74 74 0 0 0-1.111 4.498l-.073.338.29.187c4.462 2.885 9.83 5.048 11.341 5.645-.757.299-2.47.986-4.553 1.959l-.005.004c-.52.243-1.064.502-1.622.78q-.002 0-.005.003c-.167.083-.34.176-.508.262a58 58 0 0 0-2.934 1.586l-.008.004c-.577.336-1.15.686-1.709 1.046l-.209.137-.072.045-.008.006.073.338c.753 3.526 1.596 6.166 1.814 6.869-.704-.22-3.342-1.063-6.867-1.814l-.338-.073-.002.004h-.002l-.078.125-.106.16c-.362.56-.71 1.136-1.048 1.715a59 59 0 0 0-1.85 3.442v.002l-.002.001a81 81 0 0 0-2.746 6.182c-.597-1.512-2.759-6.877-5.643-11.34l-.189-.293-.338.075-.168.04c-3.423.74-5.983 1.55-6.685 1.768l-.018.006c.218-.7 1.063-3.345 1.816-6.875l.073-.338-.29-.185a49 49 0 0 0-3.447-2.016l-.004-.002a65 65 0 0 0-1.707-.88h-.002a69 69 0 0 0-1.511-.73c-.038-.017-.08-.038-.117-.056A81 81 0 0 0 9.709 32.5c1.131-.447 4.433-1.776 7.898-3.629l.004-.002a55 55 0 0 0 1.735-.967l.004-.002c.577-.336 1.15-.686 1.709-1.046l.289-.186-.073-.338c-.755-3.53-1.599-6.174-1.816-6.873.35.109 1.185.374 2.375.707h.002c.594.166 1.277.35 2.031.54h.002c.755.188 1.581.381 2.463.57h.002l.336.072h.002l.185-.29c.36-.557.711-1.13 1.047-1.706v-.002q.505-.868.969-1.737a67 67 0 0 0 1.41-2.81c.083-.174.177-.358.256-.528v-.002a82 82 0 0 0 1.236-2.78v-.003c.136-.32.191-.466.297-.726.154-.376.342-.829.43-1.051m.002 10.495-.469 1.217v.002c0 .001-.12.316-.332.82l-.002.002a43 43 0 0 1-.87 1.95l-.003.001c-.18.375-.375.766-.58 1.153l-.002.002c-.205.387-.42.77-.639 1.134-.115.191-.233.354-.35.532-.105.16-.21.337-.316.482l-.002.004c-.22.304-.44.57-.65.781l-.004.004a6.6 6.6 0 0 1-.781.65c-.147.107-.324.212-.486.319-.177.116-.34.233-.53.347q0 .002-.002.002c-.364.22-.747.434-1.134.64l-.002.001c-.192.102-.381.19-.573.287-.194.098-.392.202-.582.293a38 38 0 0 1-1.576.705c-.109.047-.275.126-.371.166l-.004.002c-.5.21-.818.33-.818.33l-.004.002-1.217.465-.004.002 1.22.467h.003c.002 0 1.27.486 2.771 1.205h.002c.376.18.765.376 1.153.582h.002c1.162.618 2.298 1.33 2.933 1.965.847.847 1.822 2.586 2.541 4.09a41 41 0 0 1 1.205 2.773l.469 1.22.002-.003.465-1.217s.122-.319.334-.826c.211-.506.513-1.2.873-1.951a28 28 0 0 1 1.224-2.291c.22-.363.441-.705.663-1.01q0-.002.003-.004c.221-.304.44-.57.65-.781l.005-.004c.21-.21.476-.43.779-.65l.006-.004c.304-.221.646-.444 1.008-.663l.006-.003c.256-.155.53-.303.8-.452.114-.062.222-.128.336-.19l.006-.003c.385-.204.772-.396 1.145-.574.751-.36 1.443-.662 1.949-.873.505-.212.824-.332.824-.332v-.002l.004-.002 1.22-.469-1.22-.467s-1.27-.484-2.773-1.203-3.243-1.696-4.09-2.543h-.002c-.847-.846-1.824-2.586-2.543-4.09a41 41 0 0 1-.813-1.814l-.058-.133-.002-.004a27 27 0 0 1-.33-.818l-.002-.004zm-.002 2.652c.211.519.309.812.768 1.772.737 1.543 1.693 3.322 2.738 4.367 1.044 1.046 2.822 1.998 4.365 2.736.958.459 1.254.56 1.77.77-.515.21-.81.31-1.766.768a29 29 0 0 0-2.375 1.257c-.766.461-1.47.96-1.992 1.48l-.002.005a7 7 0 0 0-.32.35 12 12 0 0 0-1.16 1.642c-.464.769-.89 1.6-1.26 2.373-.458.956-.558 1.251-.768 1.766-.21-.516-.31-.812-.768-1.77-.738-1.543-1.69-3.32-2.736-4.365-1.044-1.044-2.824-2-4.367-2.738-.96-.46-1.253-.558-1.772-.77.518-.211.812-.311 1.77-.77A29 29 0 0 0 27 30.478c.383-.23.749-.47 1.086-.717l.004-.002q.252-.185.478-.375l.004-.004q.225-.19.42-.383l.004-.004q.195-.195.383-.42l.004-.004q.19-.226.375-.478.001-.003.004-.004c.247-.336.485-.704.715-1.086.23-.385.452-.785.662-1.186l.002-.002c.209-.399.405-.798.59-1.183l.001-.002c.23-.479.369-.791.477-1.049l.002-.004.055-.135c.08-.194.15-.372.236-.582" class="stroke"/></svg>