<svg xmlns="http://www.w3.org/2000/svg" viewBox="0 0 30.856 30.841"><path d="M15.428.066A15.354 15.354 0 0 0 .074 15.42a15.354 15.354 0 0 0 15.354 15.355A15.354 15.354 0 0 0 30.78 15.42 15.354 15.354 0 0 0 15.428.066m0 3.801s1.343 3.508 2.91 5.932c1.889-.404 3.685-.973 3.685-.973s-.569 1.795-.972 3.684c2.424 1.566 5.931 2.91 5.931 2.91s-3.507 1.343-5.931 2.91c.403 1.889.972 3.686.972 3.686s-1.796-.57-3.685-.973c-1.567 2.424-2.91 5.932-2.91 5.932s-1.344-3.508-2.91-5.932a45 45 0 0 0-3.684.973s.57-1.797.973-3.686c-2.425-1.567-5.934-2.91-5.934-2.91s3.51-1.344 5.934-2.91c-.404-1.889-.973-3.684-.973-3.684s1.795.57 3.684.973c1.566-2.424 2.91-5.932 2.91-5.932m0 6.324s-.944 2.47-1.852 3.377c-.908.908-3.377 1.852-3.377 1.852s2.47.946 3.377 1.853c.908.908 1.852 3.377 1.852 3.377s.945-2.469 1.853-3.377 3.377-1.853 3.377-1.853-2.469-.944-3.377-1.852c-.908-.907-1.853-3.377-1.853-3.377" style="fill:#000;fill-opacity:1;stroke-width:.179881;stroke-linecap:round;stroke-linejoin:round;stroke-miterlimit:500"/></svg>