<svg xmlns="http://www.w3.org/2000/svg" xml:space="preserve" width="251.572" height="251.41" viewBox="0 0 30.83 30.81"><path d="M67.02-5.148a14 14 0 0 1-1.287-.243 22 22 0 0 0-.89-.21c-.186-.037-.369-.116-.405-.176s-.173-.108-.302-.108c-.128 0-.43-.11-.67-.246-.24-.134-.518-.245-.617-.245s-.18-.055-.18-.122c0-.068-.071-.123-.16-.123-.225 0-.818-.288-.82-.398 0-.05-.058-.092-.128-.092-.253 0-1.985-1.257-2.832-2.057-.794-.749-2.31-2.5-2.31-2.668 0-.04-.154-.302-.342-.584a13 13 0 0 1-.748-1.37 62 62 0 0 0-.516-1.07c-.06-.118-.11-.321-.11-.453s-.054-.273-.122-.315c-.067-.042-.122-.207-.122-.368 0-.16-.05-.322-.11-.36-.206-.127-.488-2.503-.488-4.113s.282-3.986.488-4.113c.06-.038.11-.2.11-.36s.055-.326.122-.368.123-.183.123-.315.049-.335.11-.452c.06-.117.292-.599.515-1.07.223-.473.56-1.09.748-1.37.188-.283.342-.545.342-.584 0-.168 1.516-1.92 2.31-2.669.847-.8 2.579-2.057 2.832-2.057.07 0 .128-.041.129-.092 0-.11.594-.398.82-.398.088 0 .16-.055.16-.122 0-.068.08-.123.18-.123.098 0 .376-.11.616-.245s.542-.245.67-.245c.13 0 .269-.055.31-.123.042-.067.207-.122.368-.122.16 0 .322-.05.36-.11.127-.206 2.503-.488 4.113-.488s3.986.282 4.113.488c.038.06.2.11.36.11s.326.055.368.122c.041.068.177.123.302.123.124 0 .438.104.697.23.26.127.747.362 1.084.521s.631.332.654.382c.022.051.093.092.158.092.245 0 1.99 1.273 2.822 2.057.794.749 2.31 2.5 2.31 2.669 0 .039.154.301.342.583s.525.898.748 1.37.455.954.516 1.07c.06.118.11.321.11.453s.054.274.122.315c.067.042.122.208.122.368s.05.323.11.36c.115.07.162.322.385 2.03.151 1.16.077 4.563-.113 5.183a28 28 0 0 0-.263.944c-.078.304-.192.648-.253.765-.06.117-.11.297-.11.4 0 .102-.05.282-.11.4-.06.117-.292.598-.515 1.07-.664 1.405-1.803 2.989-3.047 4.24-1.053 1.058-2.857 2.439-3.186 2.439-.07 0-.128.041-.129.092-.001.11-.595.398-.82.398-.088 0-.16.055-.16.123 0 .067-.08.122-.18.122s-.376.11-.616.245-.518.246-.618.246-.278.05-.395.11-.46.175-.764.253c-.303.078-.717.196-.92.262-.485.158-4.455.24-5.391.112m-5.322-13.054.004-4.902-.475-.036c-.462-.036-.48-.022-.641.49-.092.29-.202.582-.246.65-.044.067-.26.59-.48 1.164a39 39 0 0 1-.633 1.56c-.343.761-.299 1.529.149 2.606.626 1.507.916 2.256 1.275 3.286.036.105.225.147.55.122l.493-.038zm16.167-2.15v-7.115l-.425-.177c-.589-.246-1.327-.225-1.663.047-.263.212-.276.302-.252 1.624.014.77-.012 1.992-.058 2.716l-.084 1.318h-1.44v-2.622c0-2.335-.023-2.65-.218-2.892-.272-.335-1.157-.46-1.789-.251l-.443.146v5.619h-.722c-.546 0-.74-.048-.797-.194-.04-.107-.075-1.251-.076-2.543 0-1.292-.032-2.464-.07-2.603-.138-.516-1.62-.74-2.135-.322-.267.216-.272.276-.252 2.62.01 1.32-.016 2.544-.06 2.72-.076.301-.127.322-.803.322h-.722v-5.281l-.307-.307c-.26-.26-.405-.302-.948-.278-.477.022-.712.1-.919.307l-.277.278v13.227l.317.378.317.377h13.826z" style="fill:#000;stroke-width:.122549" transform="translate(-53.86 35.895)"/></svg>