<?xml version="1.0" encoding="UTF-8" standalone="no"?>
<svg
   viewBox="0 0 65 65.000001"
   version="1.1"
   id="svg213"
   sodipodi:docname="fire.svg"
   width="65"
   height="65"
   inkscape:version="1.2 (dc2aeda, 2022-05-15)"
   xmlns:inkscape="http://www.inkscape.org/namespaces/inkscape"
   xmlns:sodipodi="http://sodipodi.sourceforge.net/DTD/sodipodi-0.dtd"
   xmlns="http://www.w3.org/2000/svg"
   xmlns:svg="http://www.w3.org/2000/svg">
  <defs
     id="defs217" />
  <sodipodi:namedview
     id="namedview215"
     pagecolor="#505050"
     bordercolor="#eeeeee"
     borderopacity="1"
     inkscape:showpageshadow="0"
     inkscape:pageopacity="0"
     inkscape:pagecheckerboard="0"
     inkscape:deskcolor="#505050"
     showgrid="false"
     inkscape:zoom="4.7285679"
     inkscape:cx="21.888234"
     inkscape:cy="22.522675"
     inkscape:window-width="1440"
     inkscape:window-height="900"
     inkscape:window-x="0"
     inkscape:window-y="0"
     inkscape:window-maximized="0"
     inkscape:current-layer="svg213" />
  <g
     id="path211">
    <path
       style="color:#000000;fill:#000103;stroke-miterlimit:500;-inkscape-stroke:none"
       d="M 32.49896,0.5 A 32.00104,32 0 0 0 0.50000007,32.49792 32.00104,32 0 0 0 32.49896,64.5 32.00104,32 0 0 0 64.5,32.49792 32.00104,32 0 0 0 32.49896,0.5 m 0.929827,8.5969839 c 3.85452,2.2194491 4.247668,6.9100361 4.233107,7.5486221 v 0.0083 c 0.09777,0.50546 -0.515877,0.948518 -1.194007,1.181487 a 6.2404524,6.2402496 0 0 0 -2.718757,1.799272 6.2404524,6.2402496 0 0 0 -1.547632,4.060323 6.219651,6.2194488 0 0 0 12.439302,0 c 0,-0.942278 -0.166412,-1.23557 0.212175,-0.898596 0.380668,0.334893 0.457634,0.436817 0.68645,0.665626 9.722625,8.621945 3.827478,22.048882 -8.54942,23.579824 0.832061,-0.761311 1.291774,-1.368695 2.019827,-2.400416 0.728053,-1.031722 1.013033,-2.367135 1.013033,-3.712949 a 7.2524458,7.2522101 0 0 0 -14.504891,0 c 0,0.648986 0.09153,1.275091 0.251698,1.872075 1.000552,6.015601 9.073618,10.269371 20.452043,5.48934 a 18.721357,18.720749 0 0 1 -0.68229,0.721788 c -7.055871,7.055643 -18.507102,7.068123 -25.550492,0 -5.620568,-5.637025 -7.17652,-15.247009 -3.392726,-20.832033 0.09361,-0.0936 0.353626,-0.339053 0.422271,0.320333 0.251698,2.633385 0.488835,5.343734 2.408814,6.670827 0.180973,0.0624 0.345305,0.09984 0.366107,-0.270411 -0.07697,-5.855434 0.915266,-12.00208 6.309097,-15.479979 1.965743,-1.065003 3.968928,-1.926157 5.395911,-4.376495 1.264732,-2.169527 1.705724,-4.474259 1.93038,-5.9469581"
       id="path1610" />
    <path
       style="color:#000000;fill:#ffffff;stroke-miterlimit:500;-inkscape-stroke:none"
       d="M 32.498047,0 C 14.555815,0.00116617 0.00116621,14.556372 0,32.498047 -0.00116639,50.44137 14.554167,64.998834 32.498047,65 50.44275,65 65.001166,50.442194 65,32.498047 64.998834,14.555548 50.441103,-3.7903485e-8 32.498047,0 Z m 0,1 C 49.900704,0.99999996 63.998869,15.095982 64,32.498047 64.001131,49.901713 49.902305,64 32.498047,64 15.094589,63.998869 0.99886874,49.900913 1,32.498047 1.0011311,15.096783 15.096191,1.001131 32.498047,1 Z m 1.179687,7.6640625 -0.660524,-0.366647 -0.08362,0.7240688 c -0.221674,1.4531467 -0.654582,3.6913747 -1.867188,5.7714847 -1.350213,2.318513 -3.209596,3.108501 -5.201172,4.1875 l -0.01758,0.0098 L 25.832031,19 c -5.418083,3.493537 -6.518043,9.583869 -6.513672,15.337891 -0.569434,-0.559143 -0.988365,-1.255441 -1.240234,-2.148438 -0.312546,-1.108127 -0.43652,-2.418268 -0.5625,-3.736328 v -0.002 l -0.127874,-2.139207 -1.206104,1.586473 c -3.968874,5.858209 -2.335478,15.661246 3.453125,21.466797 7.234857,7.260263 19.010889,7.246689 26.257812,0 0.240017,-0.240783 0.474263,-0.489014 0.701172,-0.742187 l 1.484375,-1.65625 -2.050781,0.861328 c -5.60145,2.353147 -10.338096,2.46235 -13.761719,1.292969 -3.423623,-1.169382 -5.534258,-3.59043 -6.001953,-6.402344 l -0.0039,-0.02344 -0.0078,-0.02344 c -0.149849,-0.558523 -0.234375,-1.142167 -0.234375,-1.744141 0.0011,-3.734291 3.017516,-6.75 6.751953,-6.75 3.734437,0 6.752832,3.015709 6.753906,6.75 0,1.275229 -0.27557,2.509906 -0.921875,3.425782 -0.724184,1.026239 -1.147204,1.586493 -1.949218,2.320312 l -1.15625,1.056641 1.554687,-0.19336 c 6.355555,-0.786093 11.090527,-4.636397 12.966772,-9.443308 1.87569,-4.805488 0.848835,-10.572734 -4.142578,-15.001953 -0.204519,-0.205678 -0.308695,-0.332795 -0.689453,-0.667969 -0.361308,-0.337917 -0.782483,-0.610165 -1.200663,-0.885653 0.100758,0.710291 0.128088,1.572343 0.155697,2.157094 0,3.164678 -2.553946,5.718751 -5.71875,5.71875 -3.163472,0 -5.718553,-2.552013 -5.720703,-5.714843 v -0.002 -0.002 c 0.01266,-1.374057 0.517915,-2.697114 1.423828,-3.730468 0.672263,-0.763577 1.534394,-1.333935 2.5,-1.654297 l 0.002,-0.002 h 0.0039 c 0.387349,-0.133072 1.214135,-0.508327 1.513672,-0.777522 v -0.9549 c 0.0046,-0.479028 -0.08828,-1.724429 -0.679687,-3.289063 -0.605846,-1.602825 -1.734224,-3.440986 -3.78711,-4.6230465 z m 0.06445,1.3652345 c 1.386915,1.022179 2.308694,2.345633 2.78711,3.611328 0.550716,1.456974 0.637119,2.805269 0.632812,2.994141 v 0.0059 c -0.06844,0.437023 -0.528343,0.551368 -0.851528,0.720701 -1.133758,0.37615 -2.148163,1.046806 -2.9375,1.943359 -1.064567,1.214327 -1.658087,2.771899 -1.671875,4.386719 v 0.002 0.002 c 0,3.705134 3.015478,6.718751 6.720703,6.71875 3.682337,0 6.668154,-2.980621 6.705078,-6.654296 0.01873,0.01905 0.03728,0.03533 0.05859,0.05664 l 0.01172,0.0098 0.0098,0.0098 c 4.727376,4.192199 5.6138,9.447809 3.878906,13.892579 -1.586349,4.064202 -5.475607,7.332716 -10.720703,8.451171 0.326205,-0.394547 0.683954,-0.727401 1.052735,-1.25 0.8098,-1.147565 1.105468,-2.585556 1.105468,-4.001953 -0.0012,-4.274646 -3.47915,-7.75 -7.753906,-7.75 -4.274756,0 -7.750723,3.475354 -7.751953,7.75 0,0.685814 0.09972,1.34551 0.265625,1.972657 0.539084,3.195649 2.957675,5.902053 6.658203,7.166015 3.20017,1.093059 7.395534,1.02682 12.1875,-0.544922 C 37.222962,55.432285 26.867493,55.204993 20.343813,48.658405 15.12825,43.427571 13.600965,34.62288 16.62311,29.215046 c 0.108464,1.099661 0.202799,2.220073 0.492187,3.246093 0.348941,1.237165 0.944306,2.372496 2.027344,3.121094 0.210038,0.192193 1.150382,0.729799 1.150382,0.729799 v -1.384105 -0.01563 -0.01758 c -0.07615,-5.793433 0.888504,-11.704817 6.078125,-15.052734 8.3e-4,-5.35e-4 0.0011,-0.0014 0.002,-0.002 1.931255,-1.043794 4.061369,-1.977323 5.55664,-4.544922 1.113442,-1.910003 1.549334,-3.794068 1.8125,-5.265625 z"
       id="path1612"
       sodipodi:nodetypes="cscsccscscccccccccscccccccccsscccscscccsccccssccccccccscccsccccccssccccscscsccscccscccccscccc" />
  </g>
</svg>
