<svg xmlns="http://www.w3.org/2000/svg" viewBox="0 0 65 65"><path d="M31.999.002C14.329.002 0 14.329 0 32.003c0 17.675 14.327 31.999 31.999 31.999C49.673 64.002 64 49.678 64 32.003S49.673.004 32.001.004m.507 31.28c9.253 1.802 15.486 1.213 19.617-2.767-4.978 7.812-11.425 10.916-17.673 9.867 5.002 3.1 8.434 2.393 12.929-.075-10.772 16.4-34.44 16.233-35.537-3.164 0-8.486 6.586-15.324 15.071-15.324 14.665 1.064 23.737-.78 26.869-5.455-1.37 12.29-9.315 16.88-21.276 16.917" transform="translate(.5 .498)"/><path d="M31.998-.498C14.058-.498-.5 14.059-.5 32.004s14.555 32.498 32.498 32.498c17.945 0 32.502-14.553 32.502-32.498S49.945-.496 32.002-.496v1C49.404.504 63.5 14.6 63.5 32.004S49.402 63.502 31.998 63.502C14.596 63.502.5 49.408.5 32.004S14.598.502 31.998.502Zm22.51 12.887-1.139 1.699c-1.459 2.177-4.373 3.77-8.795 4.668s-10.319 1.096-17.623.566l-.017-.002h-.018c-8.754 0-15.572 7.08-15.572 15.824v.014l.002.014c.28 4.95 2.013 8.733 4.65 11.314s6.159 3.95 9.961 4.164c7.604.428 16.363-3.725 21.842-12.066l1.103-1.68-1.761.967c-2.219 1.218-4.127 1.972-6.059 2.064-1.375.066-2.844-.357-4.422-1.06 5.72.05 11.433-3.098 15.887-10.09l2.26-3.547-3.03 2.92c-3.22 3.103-7.893 3.997-14.416 3.299 3.934-.504 7.344-1.641 10.053-3.635 3.772-2.776 6.172-7.156 6.867-13.4zm-1.549 3.644c-.895 5.06-2.968 8.653-6.137 10.985-3.533 2.6-8.4 3.747-14.316 3.765l-5.098.016 5.004.974c7.555 1.472 13.147 1.255 17.31-1.043-4.554 5.684-9.918 8.045-15.187 7.16l-2.508-.42 2.162 1.339c2.56 1.585 4.783 2.228 6.942 2.125 1.472-.07 2.919-.567 4.398-1.217-5.31 6.813-12.894 10.308-19.517 9.935-3.599-.202-6.87-1.487-9.317-3.88-2.443-2.392-4.079-5.901-4.35-10.643.009-8.217 6.355-14.804 14.563-14.809 7.346.531 13.309.342 17.865-.584 3.642-.74 6.367-1.974 8.186-3.703" transform="translate(.5 .498)"/></svg>
