<?xml version="1.0" encoding="UTF-8" standalone="no"?>
<svg
   viewBox="0 0 65.000001 64.999998"
   version="1.1"
   id="svg3587"
   sodipodi:docname="flying.svg"
   width="65"
   height="65"
   inkscape:version="1.2 (dc2aeda, 2022-05-15)"
   xmlns:inkscape="http://www.inkscape.org/namespaces/inkscape"
   xmlns:sodipodi="http://sodipodi.sourceforge.net/DTD/sodipodi-0.dtd"
   xmlns="http://www.w3.org/2000/svg"
   xmlns:svg="http://www.w3.org/2000/svg">
  <defs
     id="defs3591" />
  <sodipodi:namedview
     id="namedview3589"
     pagecolor="#505050"
     bordercolor="#eeeeee"
     borderopacity="1"
     inkscape:showpageshadow="0"
     inkscape:pageopacity="0"
     inkscape:pagecheckerboard="0"
     inkscape:deskcolor="#505050"
     showgrid="false"
     inkscape:zoom="4.223585"
     inkscape:cx="-3.1963368"
     inkscape:cy="15.034621"
     inkscape:window-width="1440"
     inkscape:window-height="900"
     inkscape:window-x="0"
     inkscape:window-y="0"
     inkscape:window-maximized="0"
     inkscape:current-layer="svg3587" />
  <g
     id="path3585"
     transform="translate(0.5,0.49804688)">
    <path
       style="color:#000000;fill:#000000;stroke-miterlimit:386.8;-inkscape-stroke:none"
       d="M 31.998958,0.002 C 14.328608,0.002 0,14.328522 0,32.003044 c 0,17.674522 14.326522,31.998957 31.998958,31.998957 17.674522,0 32.001043,-14.324435 32.001043,-31.998957 0,-17.674522 -14.326521,-31.99895802 -31.998957,-31.99895802 M 32.507937,31.28338 c 9.253415,1.802288 15.486328,1.214041 19.616571,-2.766012 -4.977152,7.812002 -11.424921,10.915942 -17.672436,9.866693 5.002184,3.099769 8.433624,2.392621 12.928914,-0.0751 C 36.608977,54.708948 12.94143,54.54207 11.844204,35.144527 c 0,-8.485773 6.585443,-15.323621 15.071217,-15.323621 14.66445,1.063851 23.736384,-0.780157 26.868486,-5.45484 -1.369447,12.290607 -9.314951,16.879766 -21.27597,16.917314 z"
       id="path4438" />
    <path
       style="color:#000000;fill:#ffffff;stroke-miterlimit:386.8;-inkscape-stroke:none"
       d="M 31.998047,-0.49804688 C 14.057459,-0.49804688 -0.5,14.059171 -0.5,32.003906 -0.5,49.948602 14.055445,64.501953 31.998047,64.501953 49.942703,64.501953 64.5,49.948602 64.5,32.003906 64.5,14.059211 49.944555,-0.49609375 32.001953,-0.49609375 v 1 C 49.404188,0.50390625 63.5,14.599593 63.5,32.003906 63.5,49.408219 49.402399,63.501953 31.998047,63.501953 14.595812,63.501953 0.5,49.408219 0.5,32.003906 0.5,14.599633 14.59797,0.50195312 31.998047,0.50195312 Z M 54.507812,12.388672 53.369141,14.087891 c -1.458717,2.177144 -4.37291,3.769938 -8.794922,4.667968 -4.422013,0.898031 -10.319044,1.096285 -17.623047,0.566407 l -0.01758,-0.002 h -0.01758 c -8.754366,0 -15.572266,7.079769 -15.572266,15.824219 v 0.01367 l 0.002,0.01367 c 0.280028,4.950532 2.013261,8.733635 4.650391,11.314453 2.63713,2.580819 6.158848,3.950126 9.960937,4.164063 7.604179,0.427872 16.363123,-3.725326 21.841797,-12.066407 l 1.103516,-1.679687 -1.761719,0.966797 c -2.218259,1.217728 -4.12709,1.972101 -6.058594,2.064453 -1.375157,0.06575 -2.844225,-0.357796 -4.421875,-1.060547 5.719528,0.05092 11.432379,-3.098434 15.886719,-10.089844 l 2.259766,-3.546875 -3.029297,2.919922 c -3.219938,3.10285 -7.893719,3.996604 -14.416016,3.298828 3.933253,-0.504324 7.343682,-1.640952 10.052734,-3.634765 3.772153,-2.776236 6.171439,-7.156131 6.867188,-13.400391 z m -1.548828,3.644531 c -0.894705,5.059024 -2.968373,8.652531 -6.136718,10.984375 -3.533209,2.600377 -8.399501,3.747051 -14.316407,3.765625 l -5.097656,0.01563 5.003906,0.974609 c 7.554542,1.471399 13.146676,1.254221 17.310547,-1.042968 -4.554766,5.683163 -9.919093,8.044967 -15.1875,7.160156 l -2.507812,-0.419922 2.162109,1.337891 c 2.559074,1.585815 4.782825,2.228209 6.941406,2.125 1.472185,-0.07039 2.919175,-0.566638 4.398438,-1.216797 -5.310086,6.813431 -12.894642,10.308206 -19.517578,9.935547 -3.598445,-0.202478 -6.870656,-1.487334 -9.316407,-3.88086 -2.443589,-2.39141 -4.078846,-5.900723 -4.349609,-10.642578 0.0083,-8.216916 6.354565,-14.804327 14.5625,-14.808594 7.34559,0.531069 13.308833,0.341339 17.865234,-0.583984 3.641947,-0.739613 6.366184,-1.974495 8.185547,-3.703125 z"
       id="path4440" />
  </g>
</svg>
