<?xml version="1.0" encoding="UTF-8" standalone="no"?>
<svg
   xml:space="preserve"
   width="250.359"
   height="250.395"
   viewBox="0 0 30.681 30.686"
   version="1.1"
   id="svg213"
   sodipodi:docname="flying.svg"
   inkscape:version="1.2 (dc2aeda, 2022-05-15)"
   xmlns:inkscape="http://www.inkscape.org/namespaces/inkscape"
   xmlns:sodipodi="http://sodipodi.sourceforge.net/DTD/sodipodi-0.dtd"
   xmlns="http://www.w3.org/2000/svg"
   xmlns:svg="http://www.w3.org/2000/svg"><defs
     id="defs217" /><sodipodi:namedview
     id="namedview215"
     pagecolor="#505050"
     bordercolor="#eeeeee"
     borderopacity="1"
     inkscape:showpageshadow="0"
     inkscape:pageopacity="0"
     inkscape:pagecheckerboard="0"
     inkscape:deskcolor="#505050"
     showgrid="false"
     inkscape:zoom="0.63392839"
     inkscape:cx="25.239444"
     inkscape:cy="196.39442"
     inkscape:window-width="1440"
     inkscape:window-height="782"
     inkscape:window-x="0"
     inkscape:window-y="25"
     inkscape:window-maximized="0"
     inkscape:current-layer="svg213" /><path
     id="path325"
     style="fill:#000000;fill-opacity:1;stroke:none;stroke-width:0.223533;stroke-linecap:round;stroke-linejoin:round;stroke-miterlimit:500"
     d="M 15.3405,0.002183 C 6.8679955,0.00217 -3.295e-4,6.8704958 -3.165e-4,15.342999 -3.295e-4,23.815505 6.8679955,30.68383 15.3405,30.683817 23.813004,30.68383 30.681329,23.815505 30.681316,15.342999 30.681329,6.8704958 23.813004,0.00217 15.3405,0.002183 Z m 10.442241,6.8852838 c -0.656258,5.8919662 -4.466104,8.0914022 -10.200105,8.1101702 4.436166,0.863731 7.424362,0.581451 9.404615,-1.326739 -2.386326,3.745222 -5.47723,5.233567 -8.472001,4.729975 2.398088,1.486588 4.043241,1.146764 6.197445,-0.03592 -5.163565,7.86194 -16.5090135,7.78193 -17.0360815,-1.516593 -6.5e-5,-4.068431 3.157057,-7.3464895 7.2254885,-7.3465565 7.029122,0.5108325 11.378467,-0.3736327 12.880639,-2.6143367 z"
     sodipodi:nodetypes="ccccccccccccc" /></svg>
