<svg xmlns="http://www.w3.org/2000/svg" xml:space="preserve" width="250.359" height="250.395" viewBox="0 0 30.681 30.686"><path d="M210.463-59.93c-1.994-.222-3.57-.703-5.396-1.65-4.361-2.258-7.51-6.754-8.086-11.541-.325-2.704-.104-4.707.81-7.334 1.222-3.517 4.046-6.694 7.464-8.4 3.961-1.978 8.352-2.175 12.623-.567 2.32.873 5.028 2.974 6.682 5.182 1.408 1.88 2.503 4.594 2.822 6.994.749 5.627-1.572 11.059-6.204 14.523-1.85 1.385-4.66 2.493-6.977 2.753-1.779.2-2.25.205-3.738.04m.943-6.478c1.498-.346 2.66-.972 3.662-1.973l.286-.286h-.347c-.397 0-.662-.254-.6-.576.036-.187.223-.234 1.226-.305 1.33-.095 2.15-.377 3.055-1.051.637-.474 1.737-1.832 1.206-1.489-.652.421-2.774.541-6.397.362-.051-.003-.092-.163-.092-.356v-.351l1.868-.062c1.49-.048 2.028-.115 2.652-.33 1.55-.531 2.887-1.708 3.572-3.143.45-.941.453-1.038.026-.646-.596.548-1.109.845-2.02 1.172-.872.313-.952.319-3.893.308a316 316 0 0 1-3.094-.02c-.05-.004-.092-.166-.092-.359v-.35l2.053-.072c2.093-.073 3.01-.262 4.138-.854 2.239-1.175 3.728-3.456 4.039-6.186.046-.408.027-.643-.054-.643-.07 0-.127.054-.127.12 0 .288-1.533 1.423-2.45 1.814-1.216.518-1.528.548-6.618.635-5.339.092-5.162.07-6.74.835-1.595.772-3.189 2.603-3.704 4.255-.497 1.594-.556 2.36-.284 3.643.329 1.552.88 2.592 1.965 3.71.54.556 1.284 1.182 1.655 1.391.61.346.934.464 2.328.854.662.185 1.86.165 2.78-.047" style="fill:#000;stroke-width:.122549" transform="translate(-196.84 90.498)"/></svg>