<svg xmlns="http://www.w3.org/2000/svg" xml:space="preserve" width="249.891" height="249.775" viewBox="0 0 30.624 30.61"><path d="M112.224-44.558c-1.119-.215-3.051-.844-3.983-1.296-2.207-1.071-4.601-3.073-5.888-4.924-1.297-1.865-2.25-4.138-2.625-6.253-.217-1.232-.246-4.141-.05-5.198.404-2.191 1.408-4.623 2.64-6.395 1.318-1.896 3.828-4.007 5.923-4.983 1.011-.471 2.956-1.085 4.113-1.299 1.057-.195 3.966-.167 5.198.051 1.338.237 3.329.911 4.451 1.509 2.846 1.514 5.438 4.212 6.748 7.025.462.993 1.077 2.943 1.29 4.092.19 1.033.167 3.962-.042 5.14a15.46 15.46 0 0 1-12.505 12.505c-1.108.196-4.305.212-5.27.026M119-50.603c1.006-.157 1.941-.426 3.15-.908l.368-.146-.429-.223a1.9 1.9 0 0 1-.658-.615c-.353-.605-.213-1.16.574-2.284.99-1.412 1.503-2.78 1.667-4.435.275-2.79-.613-5.38-2.542-7.407-1.843-1.937-4.095-2.907-6.743-2.907-2.47 0-4.14.622-6.255 2.328-.637.514-1.91 2.18-2.233 2.921-.755 1.732-.888 2.341-.888 4.064 0 1.66.054 1.964.615 3.493.774 2.106 2.757 4.137 5.039 5.159.52.233 1.057.475 1.191.538.37.171 1.732.477 2.696.605 1.031.137 2.891.06 4.448-.183m-8.998-8.716c-.352-.069-1.234-.837-1.458-1.27-.406-.786-.095-2.108.63-2.678.499-.393.783-.34.783.145 0 .364.208.797.546 1.135.428.428.77.547 1.567.547h.833l-.081.337c-.316 1.32-1.47 2.049-2.82 1.784m7.434-.052a2.48 2.48 0 0 1-1.52-1.733l-.082-.338.717.017c.462.01.88-.061 1.175-.201.473-.225 1.054-.943 1.054-1.303 0-.661.397-.777.883-.258.69.74.922 1.846.537 2.58-.552 1.054-1.81 1.617-2.764 1.236" style="fill:#000;stroke-width:.122549" transform="translate(-99.547 75.037)"/></svg>