<svg xmlns="http://www.w3.org/2000/svg" viewBox="0 0 30.624 30.61"><path d="M15.312.123A15.18 15.18 0 0 0 .13 15.305a15.18 15.18 0 0 0 15.182 15.182 15.18 15.18 0 0 0 15.182-15.182A15.18 15.18 0 0 0 15.312.123m-.496 5.397a9.424 9.424 0 0 1 9.424 9.424 9.4 9.4 0 0 1-1.708 5.406h.04l-.095.08a9 9 0 0 1-.637.796c-.41.85-.034 1.721 1.13 2.154-3.22 1.377-6.546 1.62-9.973.809h-.001a9.424 9.424 0 0 1-7.605-9.245 9.424 9.424 0 0 1 9.425-9.424m-4.603 5.97a.7.7 0 0 0-.316.106c-.878.527-1.75 2.348-.293 3.651 1.456 1.302 3.435.156 3.671-1.395.031-.346-.258-.28-.454-.255-.85.108-1.234-.105-1.633-.393-.551-.442-.727-.934-.745-1.464-.007-.18-.097-.253-.23-.25m9.22 0c-.122.005-.203.08-.21.25-.017.53-.193 1.022-.745 1.464-.399.288-.782.501-1.633.393-.196-.024-.485-.09-.454.255.237 1.551 2.215 2.697 3.671 1.395 1.457-1.303.586-3.124-.292-3.651a.7.7 0 0 0-.338-.105"/></svg>