<?xml version="1.0" encoding="UTF-8" standalone="no"?>
<svg
   viewBox="0 0 64.999999 64.999999"
   version="1.1"
   id="svg213"
   sodipodi:docname="ghost.svg"
   width="65"
   height="65"
   inkscape:version="1.2 (dc2aeda, 2022-05-15)"
   xmlns:inkscape="http://www.inkscape.org/namespaces/inkscape"
   xmlns:sodipodi="http://sodipodi.sourceforge.net/DTD/sodipodi-0.dtd"
   xmlns="http://www.w3.org/2000/svg"
   xmlns:svg="http://www.w3.org/2000/svg">
  <defs
     id="defs217" />
  <sodipodi:namedview
     id="namedview215"
     pagecolor="#505050"
     bordercolor="#eeeeee"
     borderopacity="1"
     inkscape:showpageshadow="0"
     inkscape:pageopacity="0"
     inkscape:pagecheckerboard="0"
     inkscape:deskcolor="#505050"
     showgrid="false"
     inkscape:zoom="6.797318"
     inkscape:cx="22.582436"
     inkscape:cy="43.031678"
     inkscape:window-width="1440"
     inkscape:window-height="900"
     inkscape:window-x="0"
     inkscape:window-y="0"
     inkscape:window-maximized="0"
     inkscape:current-layer="svg213" />
  <g
     id="path211">
    <path
       style="color:#000000;fill:#000000;stroke-linejoin:round;-inkscape-stroke:none"
       d="M 32.5,0.50000028 C 14.825924,0.4976719 0.4976719,14.825924 0.50000028,32.5 0.49767126,50.174077 14.825923,64.502329 32.5,64.500001 50.174077,64.502329 64.502329,50.174077 64.5,32.5 64.502328,14.825924 50.174076,0.49767181 32.5,0.50000028 M 31.454552,11.875577 c 10.97032,1e-6 19.863521,8.893202 19.863522,19.863522 0.0013,4.078171 -1.303516,8.024472 -3.600052,11.394546 -0.272721,0.400208 -1.17179,1.328939 -1.45857,1.846398 -0.964212,1.739804 -0.07166,3.627453 2.381768,4.540113 -6.786984,2.902384 -13.797391,3.41457 -21.020682,1.705177 h -0.0021 C 18.306162,49.393454 11.590719,41.229845 11.588921,31.739099 c 0,-10.971144 8.894487,-19.864686 19.865631,-19.863522 m -9.702016,12.583322 c -0.236768,0.01976 -0.465262,0.09641 -0.666052,0.223422 -1.850612,1.11079 -3.688578,4.949019 -0.617573,7.695429 3.068897,2.744303 7.240153,0.328811 7.737584,-2.940324 0.06534,-0.729284 -0.543802,-0.590172 -0.956923,-0.537478 -1.791595,0.227638 -2.600975,-0.221315 -3.441971,-0.82835 -1.161375,-0.931629 -1.532341,-1.968647 -1.57028,-3.085759 -0.01476,-0.379397 -0.204453,-0.533263 -0.484785,-0.52694 m 19.43354,0 c -0.257147,0.01054 -0.427875,0.168621 -0.442629,0.52694 -0.03583,1.117112 -0.406798,2.15413 -1.570281,3.085759 -0.840996,0.607035 -1.648268,1.055988 -3.441971,0.82835 -0.413121,-0.05059 -1.022263,-0.189699 -0.956923,0.537478 0.499539,3.269135 4.668687,5.684627 7.737585,2.940324 3.071005,-2.74641 1.235146,-6.584639 -0.615466,-7.695429 -0.214596,-0.13358 -0.459911,-0.209788 -0.712423,-0.221314"
       id="path1737" />
    <path
       style="color:#000000;fill:#ffffff;stroke-linejoin:round;-inkscape-stroke:none"
       d="M 32.5,0 C 14.555675,-0.00236398 -0.00236398,14.555675 0,32.5 -0.00236463,50.444326 14.555674,65.002364 32.5,65 50.444326,65.002364 65.002365,50.444326 65,32.5 65.002364,14.555675 50.444325,-0.00236407 32.5,0 Z m 0,1 C 49.903792,0.99770714 64.002292,15.096208 64,32.5 64.002293,49.903793 49.903793,64.002292 32.5,64 15.096207,64.002292 0.9977066,49.903793 1,32.5 0.99770723,15.096208 15.096208,0.99770723 32.5,1 Z m -1.044922,10.375 c -11.241371,-0.0012 -20.365234,9.12191 -20.365234,20.363281 0.0018,9.726542 6.888003,18.101124 16.43164,19.978516 a 0.50005,0.50005 0 0 0 0.04102,0.0039 c 7.295637,1.715046 14.411427,1.195069 21.275391,-1.740234 a 0.50005,0.50005 0 0 0 -0.02148,-0.929688 c -1.139706,-0.423964 -1.865582,-1.054173 -2.203125,-1.716797 -0.337542,-0.662624 -0.329249,-1.365698 0.08398,-2.111328 0.09748,-0.175892 0.386894,-0.544376 0.677734,-0.886719 0.29084,-0.342342 0.57687,-0.657261 0.755859,-0.919921 2.349191,-3.447343 3.688834,-7.492815 3.6875,-11.677735 C 51.818358,20.497752 42.695607,11.375001 31.455078,11.375 Z m 0,1 c 10.700089,10e-7 19.36328,8.663192 19.363281,19.363281 a 0.50005,0.50005 0 0 0 0,0.002 c 0.0013,3.971414 -1.269794,7.818529 -3.513672,11.111328 -0.09373,0.137548 -0.392837,0.486452 -0.691406,0.837891 -0.298569,0.351439 -0.601717,0.707262 -0.791015,1.048828 -0.550978,0.994173 -0.580646,2.104514 -0.09961,3.048828 0.330932,0.649648 0.953103,1.171715 1.69336,1.621094 -6.370362,2.488807 -12.911637,2.931739 -19.679688,1.330078 a 0.50005,0.50005 0 0 0 -0.103516,-0.01172 l 0.08203,0.0078 c -9.080896,-1.786363 -15.623247,-9.741162 -15.625,-18.996094 0,-10.700894 8.66434,-19.364416 19.365234,-19.363281 z m -9.712891,11.583984 0.01172,0.5 -0.04297,-0.498047 c -0.314288,0.02623 -0.617617,0.129425 -0.884765,0.296875 -1.078806,0.649534 -2.045985,1.97261 -2.382813,3.554688 -0.337281,1.584211 0.03269,3.454103 1.691407,4.9375 1.67269,1.495772 3.732204,1.607084 5.373046,0.869141 1.640843,-0.737944 2.916134,-2.285481 3.19336,-4.107422 a 0.50005,0.50005 0 0 0 0.0039,-0.0293 c 0.02237,-0.249689 -0.0071,-0.493701 -0.136719,-0.705078 -0.129589,-0.211378 -0.351689,-0.339553 -0.537109,-0.386719 -0.369984,-0.09411 -0.661294,-0.0098 -0.84375,0.01367 -1.680727,0.213551 -2.267783,-0.150519 -3.072266,-0.730469 -1.053115,-0.848327 -1.344463,-1.690923 -1.378906,-2.705078 a 0.50005,0.50005 0 0 0 0,-0.002 c -0.01051,-0.270217 -0.09016,-0.541438 -0.287109,-0.740235 -0.196949,-0.198796 -0.472915,-0.272858 -0.707032,-0.267578 z m 19.423829,0 c -0.22625,0.0093 -0.487623,0.101774 -0.664063,0.298828 -0.176439,0.197055 -0.247298,0.451682 -0.257812,0.707032 a 0.50005,0.50005 0 0 0 0,0.0059 c -0.03248,1.012724 -0.322025,1.853492 -1.375,2.701172 -0.806739,0.581784 -1.388562,0.946348 -3.074219,0.732422 a 0.50005,0.50005 0 0 0 -0.0039,0 c -0.181108,-0.02218 -0.471773,-0.105844 -0.841797,-0.01172 -0.185012,0.04706 -0.407269,0.173608 -0.53711,0.384766 -0.12984,0.211158 -0.159123,0.455729 -0.136718,0.705078 a 0.50005,0.50005 0 0 0 0.0039,0.03125 c 0.278365,1.821707 1.554736,3.367514 3.195312,4.105469 1.640577,0.737954 3.698445,0.626593 5.371094,-0.869141 1.658676,-1.48336 2.030066,-3.353273 1.693359,-4.9375 -0.336137,-1.58155 -1.300478,-2.904871 -2.378906,-3.554688 -5.36e-4,-3.34e-4 -0.0014,3.34e-4 -0.002,0 -0.286915,-0.178214 -0.613741,-0.281472 -0.951172,-0.296875 l -0.02148,0.476563 z m -19.427735,1.017578 c 0.0031,0.01338 -0.0016,-0.01267 0,0.0293 0.04214,1.215897 0.495051,2.443686 1.75586,3.455078 a 0.50005,0.50005 0 0 0 0.02148,0.01563 c 0.869575,0.627664 1.905056,1.160295 3.796875,0.919922 0.194511,-0.02481 0.332172,-0.03117 0.398437,-0.03125 -0.221659,1.44544 -1.278253,2.741389 -2.613281,3.341797 -1.336365,0.60101 -2.898718,0.547357 -4.294922,-0.701172 -1.412283,-1.263009 -1.657461,-2.685174 -1.380859,-3.984375 0.276602,-1.2992 1.151828,-2.447952 1.921875,-2.910156 a 0.50005,0.50005 0 0 0 0.0098,-0.0059 c 0.115685,-0.07318 0.249781,-0.109155 0.384765,-0.128907 z m 19.503906,0.0098 c 0.136775,0.01829 0.272912,0.04782 0.390625,0.121094 a 0.50005,0.50005 0 0 0 0.0059,0.0039 c 0.769975,0.462161 1.64575,1.610971 1.921875,2.910156 0.276124,1.299185 0.02951,2.721328 -1.382813,3.984375 -1.396246,1.248567 -2.956864,1.302171 -4.292968,0.701172 -1.334221,-0.600151 -2.392016,-1.894885 -2.615235,-3.339844 0.06602,-1.9e-4 0.203869,0.0052 0.400391,0.0293 1.892205,0.239574 2.926039,-0.292757 3.794922,-0.919922 a 0.50005,0.50005 0 0 0 0.02148,-0.01563 c 1.262869,-1.011209 1.715897,-2.238721 1.755859,-3.455078 0.001,-0.02505 -0.0022,-0.0052 0,-0.01953 z"
       id="path1739" />
  </g>
</svg>
