<?xml version="1.0" encoding="UTF-8" standalone="no"?>
<svg
   xml:space="preserve"
   width="249.891"
   height="249.775"
   viewBox="0 0 30.624 30.61"
   version="1.1"
   id="svg237"
   sodipodi:docname="ghost.svg"
   inkscape:version="1.2 (dc2aeda, 2022-05-15)"
   xmlns:inkscape="http://www.inkscape.org/namespaces/inkscape"
   xmlns:sodipodi="http://sodipodi.sourceforge.net/DTD/sodipodi-0.dtd"
   xmlns="http://www.w3.org/2000/svg"
   xmlns:svg="http://www.w3.org/2000/svg"><defs
     id="defs241" /><sodipodi:namedview
     id="namedview239"
     pagecolor="#505050"
     bordercolor="#eeeeee"
     borderopacity="1"
     inkscape:showpageshadow="0"
     inkscape:pageopacity="0"
     inkscape:pagecheckerboard="0"
     inkscape:deskcolor="#505050"
     showgrid="false"
     inkscape:zoom="0.34628487"
     inkscape:cx="-615.1005"
     inkscape:cy="544.34951"
     inkscape:window-width="1440"
     inkscape:window-height="900"
     inkscape:window-x="0"
     inkscape:window-y="0"
     inkscape:window-maximized="0"
     inkscape:current-layer="svg237" /><path
     id="path349"
     style="fill:#000000;fill-opacity:1;stroke-width:0.223532;stroke-linecap:round;stroke-linejoin:round;stroke-miterlimit:500"
     d="M 15.311977 0.12278965 A 15.182158 15.182158 0 0 0 0.12986165 15.304905 A 15.182158 15.182158 0 0 0 15.311977 30.487259 A 15.182158 15.182158 0 0 0 30.494092 15.304905 A 15.182158 15.182158 0 0 0 15.311977 0.12278965 z M 14.815552 5.5195505 A 9.4244699 9.4244699 0 0 1 24.239957 14.943956 A 9.4244699 9.4244699 0 0 1 22.531673 20.350291 L 22.572603 20.349812 C 22.539785 20.376204 22.50811 20.402724 22.4771 20.429518 A 9.4244699 9.4244699 0 0 1 21.840174 21.225616 C 21.429403 22.076366 21.805888 22.947455 22.970892 23.38006 C 19.750613 24.756893 16.423712 25.000425 12.997404 24.188844 A 9.4244699 9.4244699 0 0 1 12.995728 24.188365 A 9.4244699 9.4244699 0 0 1 5.3909077 14.943956 A 9.4244699 9.4244699 0 0 1 14.815552 5.5195505 z M 10.213214 11.490527 C 10.122635 11.492973 10.012613 11.531315 9.8967853 11.595604 C 9.0185221 12.122759 8.1473293 13.944497 9.6038135 15.24698 C 11.060299 16.549466 13.03852 15.403103 13.275296 13.852253 C 13.305986 13.506294 13.017043 13.572558 12.821477 13.597339 C 11.970413 13.705178 11.587032 13.492174 11.187872 13.203837 C 10.636521 12.761784 10.46064 12.270336 10.442517 11.739936 C 10.436366 11.559871 10.345599 11.486952 10.213214 11.490527 z M 19.432491 11.490527 C 19.31134 11.494851 19.2296 11.569348 19.223773 11.739936 C 19.20565 12.270337 19.029529 12.761783 18.478178 13.203837 C 18.079017 13.492174 17.69564 13.705179 16.844573 13.597339 C 16.649009 13.572558 16.360304 13.506294 16.390994 13.852253 C 16.627768 15.403105 18.60575 16.549467 20.062237 15.24698 C 21.518721 13.944495 20.647768 12.12276 19.769504 11.595604 C 19.644767 11.52637 19.526719 11.487163 19.432491 11.490527 z " /></svg>
