<svg xmlns="http://www.w3.org/2000/svg" viewBox="0 0 65 65"><path d="M32.5.5C14.826.498.498 14.826.5 32.5c-.002 17.674 14.326 32.002 32 32 17.674.002 32.002-14.326 32-32 .002-17.674-14.326-32.002-32-32m-1.045 11.376c10.97 0 19.863 8.893 19.863 19.863.001 4.078-1.303 8.025-3.6 11.395-.273.4-1.172 1.329-1.459 1.846-.964 1.74-.071 3.627 2.382 4.54-6.787 2.903-13.797 3.415-21.02 1.705h-.003a19.864 19.864 0 0 1-16.03-19.486c0-10.971 8.895-19.865 19.867-19.863m-9.702 12.583c-.237.02-.466.096-.667.223-1.85 1.111-3.688 4.95-.617 7.696 3.069 2.744 7.24.329 7.737-2.94.066-.73-.543-.59-.956-.538-1.792.228-2.601-.221-3.442-.828-1.162-.932-1.533-1.969-1.57-3.086-.015-.38-.205-.533-.485-.527m19.433 0c-.257.01-.428.169-.443.527-.035 1.117-.406 2.154-1.57 3.086-.84.607-1.648 1.056-3.442.828-.413-.05-1.022-.19-.957.537.5 3.27 4.669 5.685 7.738 2.94 3.07-2.746 1.235-6.584-.616-7.695a1.5 1.5 0 0 0-.712-.221"/><path d="M32.5 0C14.556-.002-.002 14.556 0 32.5-.002 50.444 14.556 65.002 32.5 65c17.944.002 32.502-14.556 32.5-32.5C65.002 14.556 50.444-.002 32.5 0m0 1C49.904.998 64.002 15.096 64 32.5c.002 17.404-14.096 31.502-31.5 31.5C15.096 64.002.998 49.904 1 32.5.998 15.096 15.096.998 32.5 1m-1.045 10.375c-11.241-.001-20.365 9.122-20.365 20.363.002 9.727 6.888 18.101 16.431 19.979l.042.004c7.295 1.715 14.41 1.195 21.275-1.74a.5.5 0 0 0-.022-.93c-1.14-.424-1.865-1.054-2.203-1.717s-.329-1.366.084-2.111c.098-.176.387-.545.678-.887.29-.342.577-.657.756-.92 2.35-3.447 3.689-7.493 3.687-11.678 0-11.24-9.122-20.363-20.363-20.363m0 1c10.7 0 19.363 8.663 19.363 19.363v.002c.002 3.972-1.27 7.819-3.513 11.112-.094.137-.393.486-.692.837-.298.352-.601.708-.79 1.05-.552.994-.581 2.104-.1 3.048.33.65.953 1.172 1.693 1.621-6.37 2.49-12.912 2.932-19.68 1.33a.5.5 0 0 0-.103-.011l.082.007A19.36 19.36 0 0 1 12.09 31.738c0-10.7 8.664-19.364 19.365-19.363m-9.713 11.584.012.5-.043-.498c-.314.026-.618.13-.885.297-1.079.65-2.046 1.972-2.383 3.555s.033 3.454 1.692 4.937c1.672 1.496 3.732 1.607 5.373.87 1.64-.739 2.916-2.286 3.193-4.108l.004-.03c.022-.25-.007-.493-.137-.705a.9.9 0 0 0-.537-.386c-.37-.094-.661-.01-.844.013-1.68.214-2.267-.15-3.072-.73-1.053-.849-1.344-1.691-1.379-2.705v-.002c-.01-.27-.09-.542-.287-.74a.97.97 0 0 0-.707-.268m19.424 0a.96.96 0 0 0-.664.299c-.176.197-.247.451-.258.707v.006c-.032 1.012-.322 1.853-1.375 2.7-.807.583-1.388.947-3.074.733h-.004c-.181-.022-.472-.106-.842-.011a.9.9 0 0 0-.537.384c-.13.212-.159.456-.137.705l.004.032c.279 1.821 1.555 3.367 3.196 4.105 1.64.738 3.698.627 5.37-.869 1.66-1.483 2.03-3.353 1.694-4.937-.336-1.582-1.3-2.905-2.379-3.555h-.002a2 2 0 0 0-.951-.297l-.021.477zm-19.428 1.018c.003.013-.001-.013 0 .029.042 1.216.495 2.444 1.756 3.455l.022.016c.87.627 1.905 1.16 3.796.92.195-.025.333-.032.399-.032-.222 1.446-1.278 2.742-2.613 3.342-1.337.601-2.9.547-4.295-.701-1.413-1.263-1.658-2.685-1.381-3.985s1.152-2.447 1.922-2.91l.01-.006a1 1 0 0 1 .384-.128m19.504.01a1 1 0 0 1 .39.12l.007.004c.77.463 1.645 1.611 1.922 2.91s.03 2.722-1.383 3.985c-1.396 1.248-2.957 1.302-4.293.701-1.334-.6-2.392-1.895-2.615-3.34.066 0 .203.005.4.03 1.892.24 2.926-.293 3.795-.92l.021-.016c1.263-1.011 1.716-2.239 1.756-3.455.001-.025-.002-.005 0-.02"/></svg>