<svg xmlns="http://www.w3.org/2000/svg" viewBox="0 0 7.966 7.966"><path class="fill" d="M5.825 5.3c.47-1.06.398-2.538.115-3.536-1.37-.185-3.055.24-3.859 1.033s-.809 2.356-.158 3.005c.057 0 .408-.392.43-.48.08-.324-.133-1.99.085-2.072s.348 1.25.384 1.632c.35-.339.814-.897.814-.897.053-.134-.117-1.124.071-1.264.226-.168.281.869.343.884.083.042 1.102-1.262 1.263-1.071.192.226-.737 1.065-.878 1.401.213.075.93-.007.96.131.05.228-.993.308-1.258.375-.107-.024-.719.903-.719.903-.014.055 1.999-.165 1.585.19-.13.114-1.5.212-1.998.371-.047.016-.37.5-.352.53 1.259.663 2.702-.075 3.172-1.135m2.08-1.317a3.922 3.922 0 1 1-7.844 0 3.922 3.922 0 0 1 7.843 0"/><path class="stroke" d="M3.982 0a3.983 3.983 0 1 0 3.983 3.982q-.002-.011-.004-.023l-.002-.002A3.98 3.98 0 0 0 3.982 0m0 .123a3.86 3.86 0 1 1 0 7.72 3.86 3.86 0 0 1-3.859-3.86 3.86 3.86 0 0 1 3.86-3.86m1.967 1.58c-1.389-.188-3.084.235-3.91 1.049-.416.41-.622 1.015-.643 1.6-.02.584.14 1.152.483 1.494l.02.017h.025c.042 0 .05-.016.068-.029a1 1 0 0 0 .06-.049 2.3 2.3 0 0 0 .282-.314c.038-.052.066-.087.078-.135.024-.099.023-.26.018-.465-.006-.204-.018-.445-.026-.678a7 7 0 0 1 0-.627c.006-.084.016-.154.03-.2.012-.044.028-.055.025-.055l.01.01c.016.019.038.06.058.117.041.112.08.28.112.464.063.367.104.796.123.987l.011.125.092-.088c.355-.343.819-.9.819-.9l.005-.008.004-.01c.014-.034.013-.065.014-.108q0-.064-.002-.152c-.005-.115-.017-.255-.023-.394-.006-.14-.007-.28.004-.39.01-.108.042-.183.058-.194s.008-.009.012-.006.02.02.037.05c.032.063.063.175.088.293s.043.242.06.34q.014.075.026.125.006.025.015.045a.1.1 0 0 0 .028.035l.01.008.015.004.004.002.016.002q.013 0 .021-.004a.1.1 0 0 0 .031-.014.4.4 0 0 0 .055-.04q.059-.052.14-.14c.112-.114.253-.266.395-.413.142-.148.286-.292.4-.383a.6.6 0 0 1 .141-.09.1.1 0 0 1 .028-.008c.009.012.015.027.01.059a.5.5 0 0 1-.053.136c-.059.11-.16.244-.272.383-.112.14-.235.284-.34.414a1.7 1.7 0 0 0-.232.344l-.025.06.06.022a1 1 0 0 0 .254.035c.1.005.208.007.312.01s.203.008.272.02q.052.008.074.02c.014.006.012.009.01.001.001.006.001.007-.014.022a.3.3 0 0 1-.09.052 2 2 0 0 1-.359.1c-.284.056-.606.09-.752.127h.03a.1.1 0 0 0-.069.012.3.3 0 0 0-.047.033 1 1 0 0 0-.101.105 5 5 0 0 0-.247.317c-.167.23-.32.463-.32.463l-.006.007-.002.01v.035l.016.026s.011.01.016.011l.011.006c.013.005.02.005.03.006q.026.003.066.002c.055 0 .132-.002.223-.006.18-.007.417-.018.64-.02.224-.001.435.006.553.034.055.013.079.034.08.033a.2.2 0 0 1-.031.033c.002-.001-.03.017-.078.03a2 2 0 0 1-.19.04c-.152.028-.352.055-.562.085-.42.058-.886.121-1.147.205-.02.006-.025.012-.033.02l-.023.023-.051.062a4 4 0 0 0-.274.426l-.011.03q-.003.006-.004.019l.002.015.01.024.007.013.016.008c1.293.682 2.771-.07 3.256-1.164.004-.01.002-.022.006-.031.466-1.079.397-2.542.113-3.545l-.012-.039zm-.062.125c.27.986.337 2.423-.117 3.447-.449 1.011-1.818 1.7-3.03 1.108l.006-.01a3 3 0 0 1 .275-.4l.01-.012c.239-.075.701-.14 1.12-.197.21-.03.41-.058.566-.086q.117-.02.199-.041c.054-.015.092-.025.127-.055a.24.24 0 0 0 .066-.082.12.12 0 0 0-.002-.104c-.033-.06-.094-.077-.166-.093a2.8 2.8 0 0 0-.582-.037c-.226.001-.464.012-.644.02l-.186.005c.043-.064.124-.187.258-.371a5 5 0 0 1 .238-.309 1 1 0 0 1 .09-.091q.016-.014.024-.016l.013-.004c.12-.03.453-.067.744-.125.146-.029.282-.063.385-.107a.4.4 0 0 0 .13-.08.15.15 0 0 0 .044-.135c-.01-.043-.042-.069-.074-.084a.4.4 0 0 0-.11-.031 2 2 0 0 0-.287-.022c-.105-.003-.214-.005-.31-.01-.06-.003-.093-.01-.135-.017.04-.07.088-.145.168-.244.103-.129.226-.272.34-.413s.217-.28.283-.402a.6.6 0 0 0 .066-.176.2.2 0 0 0-.037-.16.12.12 0 0 0-.082-.04.2.2 0 0 0-.084.017.7.7 0 0 0-.172.107 5 5 0 0 0-.414.393c-.143.149-.283.303-.392.416a2 2 0 0 1-.133.13q-.01-.036-.02-.091c-.017-.096-.037-.222-.062-.344a1.4 1.4 0 0 0-.098-.324.22.22 0 0 0-.09-.102.14.14 0 0 0-.142.016c-.078.058-.096.16-.107.281-.012.12-.009.262-.002.404s.016.284.021.397q.005.085.004.142c0 .034-.007.054-.008.06-.01.01-.392.457-.713.786-.021-.216-.05-.538-.105-.861a3 3 0 0 0-.117-.486.5.5 0 0 0-.08-.155.15.15 0 0 0-.061-.047.12.12 0 0 0-.086 0c-.06.023-.082.078-.1.139a1 1 0 0 0-.033.227 7 7 0 0 0 0 .638c.008.235.02.476.026.678s0 .369-.016.432c.001-.005-.021.042-.057.09a2.5 2.5 0 0 1-.267.298l-.018.016c-.287-.312-.453-.817-.433-1.356.02-.558.22-1.133.607-1.515.772-.762 2.418-1.18 3.762-1.012"/></svg>
