<svg xmlns="http://www.w3.org/2000/svg" xml:space="preserve" width="249.93" height="250.155" viewBox="0 0 30.629 30.656"><path d="M22.508 20.473c1.835-4.14 1.556-9.91.45-13.81-5.351-.723-11.932.94-15.069 4.033S4.73 19.899 7.27 22.434c.222 0 1.592-1.532 1.68-1.878.31-1.262-.52-7.768.333-8.09s1.356 4.881 1.499 6.374c1.366-1.322 3.177-3.501 3.177-3.501.208-.526-.455-4.39.28-4.938.88-.655 1.096 3.392 1.336 3.454.325.162 4.306-4.929 4.935-4.186.75.886-2.878 4.16-3.431 5.475.831.292 3.63-.031 3.75.51.196.89-3.876 1.204-4.913 1.465-.417-.093-2.807 3.524-2.807 3.524-.057.217 7.806-.642 6.191.747-.513.441-5.857.826-7.803 1.446-.186.061-1.447 1.955-1.377 2.068 4.917 2.592 10.553-.29 12.388-4.431m8.121-5.145c0 8.458-6.857 15.315-15.314 15.315S0 23.786 0 15.328 6.857.013 15.315.013 30.629 6.87 30.629 15.328" style="fill:#000003;fill-opacity:1;stroke-width:.122549"/></svg>