<svg xmlns="http://www.w3.org/2000/svg" xml:space="preserve" width="250.448" height="250.47" viewBox="0 0 30.692 30.695"><path d="M210.586-4.962c-5.933-.47-11.257-4.65-13.185-10.352-1.876-5.547-.449-11.685 3.677-15.81 5.929-5.93 15.657-5.99 21.567-.133 2.357 2.335 3.708 4.864 4.428 8.292.358 1.704.235 4.903-.251 6.495-.974 3.19-2.042 5.057-4.037 7.052-1.994 1.994-3.908 3.09-7.052 4.034-1.28.385-3.409.56-5.147.422m-7.29-9.547c.38 0 .406-.033.735-.95.422-1.175 1.203-3.24 1.657-4.381.188-.472.452-1.189.587-1.593.135-.405.498-1.395.808-2.201a54 54 0 0 0 .562-1.501c0-.02-.746-.036-1.658-.036-1.218 0-1.672.04-1.71.153-.05.15-1.932 5.266-2.423 6.587-.138.37-.321.84-.407 1.042s-.35.93-.585 1.616l-.43 1.25.328.057c.18.032.737.035 1.235.007.5-.028 1.085-.05 1.301-.05m19.59-.097c.033-.054-.242-.895-.612-1.87a925 925 0 0 1-2.752-7.408c-.123-.337-.33-.889-.46-1.226s-.407-1.07-.618-1.63c-.21-.561-.44-1.126-.509-1.257-.121-.226-.287-.238-3.478-.238-2.532 0-3.382.038-3.477.153-.07.085-.49 1.13-.935 2.324-.444 1.194-.859 2.297-.921 2.451s-.34.915-.619 1.69a87 87 0 0 1-.677 1.838 125 125 0 0 0-.795 2.145 78 78 0 0 1-.863 2.29c-.133.315-.24.633-.24.704 0 .156 16.86.189 16.956.034" style="fill:#000;stroke-width:.122549" transform="translate(-196.587 35.61)"/></svg>