
<svg
   viewBox="0 0 65 65.000046"
   xmlns="http://www.w3.org/2000/svg"
 >
  <path
     class="fill"
     d="m 32.511312,0.5118146 a 31.988189,31.988189 0 1 0 0,63.9763744 31.988189,31.988189 0 0 0 0,-63.9763744 m 11.62771,11.7556594 0.08,11.387796 -9.93234,5.733882 -0.024,-11.467765 z m -23.335388,0.04798 9.916338,5.621924 v 11.451771 l -9.956324,-5.757874 z m 25.190698,14.410679 9.84437,5.725886 -9.83637,5.781865 -9.91634,-5.749877 z m -26.942052,0.01599 9.884352,5.74188 -9.948328,5.765871 -9.80438,-5.701895 z m 11.675692,8.852731 0.016,11.491757 -9.852365,5.637918 -0.07997,-11.395792 z m 13.539,5.757874 -0.048,11.323821 -9.90834,-5.621926 V 35.594861 Z"
      />
  <path
    class="stroke"
     d="M 32.509766,1.5999295e-6 C 27.699289,-0.0014984 23.136249,1.0517906 19.027344,2.9277356 A 32.5,32.5 0 0 0 19,2.9414056 c -4.239154,1.940248 -7.987171,4.762715 -11.011719,8.2363284 a 32.5,32.5 0 0 0 -0.06836,0.07813 C 4.924502,14.718159 2.649813,18.816765 1.324218,23.324223 a 32.5,32.5 0 0 0 -0.0059,0.02148 C 0.466224,26.250643 0,29.320137 0,32.500002 c 0,1.563335 0.116473,3.098994 0.330078,4.603515 a 32.5,32.5 0 0 0 0.0039,0.02539 c 0.671041,4.699799 2.350463,9.073011 4.808594,12.900391 a 32.5,32.5 0 0 0 0.04102,0.06445 c 2.510417,3.88868 5.825257,7.205007 9.71289,9.716797 a 32.5,32.5 0 0 0 0.07031,0.04492 c 3.826345,2.458322 8.197983,4.138544 12.896484,4.810547 a 32.5,32.5 0 0 0 0.02734,0.002 c 1.509616,0.214617 3.050335,0.332511 4.619141,0.332031 3.1733,-9.73e-4 6.23726,-0.466721 9.136718,-1.316406 a 32.5,32.5 0 0 0 0.02149,-0.0059 c 4.507432,-1.32428 8.605534,-3.597793 12.068359,-6.591796 a 32.5,32.5 0 0 0 0.08203,-0.07227 c 3.471022,-3.021422 6.293668,-6.763773 8.234375,-10.998047 a 32.5,32.5 0 0 0 0.01953,-0.04297 C 63.946992,41.866515 65,37.306942 65,32.500002 v -0.0078 -0.0039 c -5.54e-4,-1.560675 -0.118575,-3.093656 -0.332031,-4.595703 -1.81e-4,-0.0013 1.81e-4,-0.0026 0,-0.0039 a 32.468012,32.468012 0 0 0 0,-0.002 C 62.426352,12.133146 48.885694,0.0079206 32.515625,1.5999295e-6 Z M 32.515626,1.0000016 c 0.541734,2.64e-4 1.080242,0.01376 1.615234,0.04102 0.536932,0.02736 1.070126,0.06916 1.599609,0.123046 0.102377,0.01042 0.202604,0.02767 0.304688,0.03906 a 31.476378,31.476378 0 0 1 1.25,0.158203 31.476378,31.476378 0 0 1 4.658203,1.080078 31.476378,31.476378 0 0 1 1.509766,0.517578 31.476378,31.476378 0 0 1 1.466797,0.585938 31.476378,31.476378 0 0 1 0.01563,0.0059 c 0.03348,0.0144 0.06619,0.03041 0.09961,0.04492 a 31.476378,31.476378 0 0 1 1.294922,0.595703 c 0.138247,0.06764 0.273057,0.141346 0.410156,0.210938 a 31.476378,31.476378 0 0 1 0.908204,0.474609 c 0.251936,0.138397 0.498418,0.284659 0.746093,0.429688 a 31.476378,31.476378 0 0 1 0.560547,0.328125 c 0.277929,0.170542 0.55013,0.348505 0.822266,0.527343 a 31.476378,31.476378 0 0 1 0.466797,0.308594 c 0.308973,0.210991 0.613129,0.428817 0.914062,0.650391 a 31.476378,31.476378 0 0 1 0.271485,0.199218 c 0.341632,0.257199 0.677194,0.522385 1.007812,0.792969 a 31.476378,31.476378 0 0 1 0.171875,0.138672 c 0.325261,0.270014 0.643014,0.547414 0.957031,0.830078 a 31.476378,31.476378 0 0 1 0.207032,0.185547 c 0.313051,0.286813 0.620659,0.579796 0.921874,0.8789064 a 31.476378,31.476378 0 0 1 0.164063,0.164063 c 0.299016,0.301309 0.592191,0.608734 0.878906,0.921875 a 31.476378,31.476378 0 0 1 0.1875,0.207031 c 0.276522,0.307406 0.548094,0.621278 0.8125,0.939453 a 31.476378,31.476378 0 0 1 0.185547,0.228516 c 0.259668,0.318454 0.514442,0.640118 0.761719,0.96875 a 31.476378,31.476378 0 0 1 0.177734,0.242187 c 0.241723,0.327693 0.477881,0.658863 0.707031,0.996094 a 31.476378,31.476378 0 0 1 0.207032,0.314453 c 0.199364,0.301064 0.396763,0.603909 0.585937,0.91211 a 31.476378,31.476378 0 0 1 0.353516,0.601562 c 0.138637,0.23751 0.277611,0.47538 0.410156,0.716797 a 31.476378,31.476378 0 0 1 0.451172,0.861328 c 0.08026,0.157565 0.162559,0.313572 0.240234,0.472656 a 31.476378,31.476378 0 0 1 0.578125,1.255859 31.476378,31.476378 0 0 1 0.05664,0.123047 c 0.0024,0.0057 0.0034,0.01192 0.0059,0.01758 a 31.476378,31.476378 0 0 1 0.564454,1.408203 31.476378,31.476378 0 0 1 0.02148,0.05664 c 9.26e-4,0.0025 0.001,0.0053 0.002,0.0078 a 31.476378,31.476378 0 0 1 0.513672,1.501953 31.476378,31.476378 0 0 1 1.078125,4.658204 31.476378,31.476378 0 0 1 0.201172,1.583984 31.476378,31.476378 0 0 1 0.01953,0.251953 c 0.04056,0.438151 0.07717,0.877132 0.09961,1.320312 0.02706,0.534355 0.04088,1.07221 0.04102,1.613282 v 0.0078 a 31.468381,31.468381 0 0 1 -0.0059,0.242187 c -0.0035,0.457092 -0.01245,0.912985 -0.03516,1.365234 -2.27e-4,0.0045 2.3e-4,0.0092 0,0.01367 a 31.468381,31.468381 0 0 1 -4.71875,15.027345 31.468381,31.468381 0 0 1 0,0.002 c -7.66e-4,0.0012 -0.0012,0.0027 -0.002,0.0039 a 31.468381,31.468381 0 0 1 -0.851562,1.291015 c -0.02795,0.04026 -0.0578,0.07902 -0.08594,0.119141 a 31.468381,31.468381 0 0 1 -0.839843,1.144531 c -0.04081,0.05297 -0.0819,0.105507 -0.123047,0.158204 a 31.468381,31.468381 0 0 1 -0.875,1.072265 c -0.04191,0.04909 -0.08475,0.09765 -0.126953,0.146485 a 31.468381,31.468381 0 0 1 -0.962891,1.064453 31.468381,31.468381 0 0 1 -0.0332,0.03711 c -0.01331,0.01401 -0.02768,0.02703 -0.04102,0.04102 a 31.468381,31.468381 0 0 1 -1.027344,1.029296 c -0.03892,0.03725 -0.07807,0.07428 -0.117187,0.111329 a 31.468381,31.468381 0 0 1 -1.056641,0.955078 c -0.04051,0.03505 -0.0804,0.07062 -0.121094,0.105469 a 31.468381,31.468381 0 0 1 -1.185546,0.964797 31.468381,31.468381 0 0 1 -19.275391,6.582031 31.492372,31.492372 0 0 1 -3.683594,-0.195312 C 13.160359,61.964295 1,48.661702 1,32.500002 1,16.264895 13.270184,2.9134946 29.044922,1.1933606 a 31.492372,31.492372 0 0 1 3.470703,-0.185547 z m 12.107422,10.4121094 -0.726563,0.431641 -10.132813,5.796875 0.03125,12.621093 10.923829,-6.326172 z m -24.310547,0.04687 -0.0078,0.865235 -0.03125,11.595702 10.955078,6.341797 -0.01563,-12.628906 z m 23.328125,1.679688 0.08008,10.220703 -8.925782,5.166015 -0.03125,-10.316406 z m -22.335938,0.04102 8.923828,5.052734 v 10.308594 l -8.957032,-5.197265 z m -2.248047,12.970703 -0.25586,0.144531 -10.603515,6.236329 10.794921,6.279297 10.949219,-6.333985 z m 26.951171,0 -0.240234,0.144531 -10.660156,6.197266 10.916016,6.31836 10.828124,-6.34961 z m -0.0098,1.126953 8.876988,5.166016 -8.876953,5.191406 -8.908203,-5.158203 z m -26.949184,0.0332 8.876953,5.166016 -8.933594,5.189453 -8.804687,-5.15039 z m 12.179688,7.404297 -0.744141,0.431641 -10.179688,5.878907 0.0957,12.539062 10.84375,-6.197265 z m 2.582031,0 v 12.626954 l 10.908203,6.181641 0.0332,-12.47461 -0.240234,-0.144531 z m -3.582031,1.71875 0.01563,10.341798 -8.859375,5.070312 -0.08008,-10.244141 z m 4.582031,0 8.957031,5.183595 -0.04687,10.179687 -8.910156,-5.054687 z" />
</svg>
