<?xml version="1.0" encoding="UTF-8" standalone="no"?>
<svg
   xml:space="preserve"
   width="65"
   height="65"
   viewBox="0 0 8.1250001 8.125"
   version="1.1"
   id="svg213"
   sodipodi:docname="ice.svg"
   inkscape:version="1.2 (dc2aeda, 2022-05-15)"
   xmlns:inkscape="http://www.inkscape.org/namespaces/inkscape"
   xmlns:sodipodi="http://sodipodi.sourceforge.net/DTD/sodipodi-0.dtd"
   xmlns="http://www.w3.org/2000/svg"
   xmlns:svg="http://www.w3.org/2000/svg"><defs
     id="defs217" /><sodipodi:namedview
     id="namedview215"
     pagecolor="#505050"
     bordercolor="#eeeeee"
     borderopacity="1"
     inkscape:showpageshadow="0"
     inkscape:pageopacity="0"
     inkscape:pagecheckerboard="0"
     inkscape:deskcolor="#505050"
     showgrid="false"
     inkscape:zoom="3.4237757"
     inkscape:cx="-7.8860307"
     inkscape:cy="43.665244"
     inkscape:window-width="1440"
     inkscape:window-height="900"
     inkscape:window-x="0"
     inkscape:window-y="0"
     inkscape:window-maximized="0"
     inkscape:current-layer="svg213" /><g
     id="path211"
     transform="matrix(1.0198578,0,0,1.0198577,-6.6888329,-5.9597928)"
     style="stroke-width:0.980529"><path
       style="color:#000000;fill:#000000;stroke-width:0.120163;stroke-linecap:round;stroke-miterlimit:500;-inkscape-stroke:none"
       d="M 10.542504,5.9058727 C 8.3765824,5.905732 6.6206813,7.661519 6.6206813,9.8274407 c 0,2.1659213 1.7559011,3.9217083 3.9218227,3.9215683 2.165723,-1.41e-4 3.921313,-1.755846 3.921313,-3.9215683 0,-2.1657227 -1.75559,-3.9214273 -3.921313,-3.921568 m 1.425214,1.4412622 0.01044,1.3956656 -1.217736,0.7035642 -0.0029,-1.4058548 z m -2.8606174,0.00586 1.2150624,0.6892993 10e-4,1.4043264 -1.2209212,-0.7063674 z m 3.0891104,1.7662965 1.206911,0.7025453 -1.206656,0.7086593 -1.215444,-0.7048384 z m -3.303593,0.00255 1.211241,0.704201 L 8.8842119,10.533043 7.6818864,9.8330448 Z m 1.430054,1.0854046 0.002,1.408657 -1.2076747,0.691847 -0.010444,-1.397959 z m 1.659821,0.705093 -0.0051,1.389552 -1.215062,-0.689554 -1.28e-4,-1.405218 z"
       id="path1002" /><path
       style="color:#000000;fill:#ffffff;stroke-width:0.980529;stroke-linecap:round;stroke-miterlimit:500;-inkscape-stroke:none"
       d="M 10.542969,5.84375 C 8.3439327,5.8436071 6.5585937,7.6290889 6.5585937,9.828125 c 0,2.199036 1.7853391,3.982564 3.9843753,3.982422 2.198834,-1.43e-4 3.982422,-1.783588 3.982422,-3.982422 0,-2.1904397 -1.771722,-3.9648256 -3.958985,-3.9785156 a 0.0612745,0.0612745 0 0 0 -0.02344,-0.00586 z m 0,0.1230469 c 2.132607,1.385e-4 3.859375,1.7287213 3.859375,3.8613281 0,2.132606 -1.726768,3.859236 -3.859375,3.859375 -2.1328031,1.38e-4 -3.8613284,-1.726572 -3.8613284,-3.859375 0,-2.132803 1.7285253,-3.8614667 3.8613284,-3.8613281 z m 1.484375,1.2753906 -0.08984,0.052734 -1.242187,0.7109375 0.0039,1.546875 1.339844,-0.7753906 z m -2.980469,0.00586 -0.00195,0.1054687 -0.00391,1.421875 1.34375,0.7773438 -0.002,-1.546875 z M 11.90625,7.4531256 11.91605,8.7070319 10.8223,9.3398444 10.8184,8.0761725 Z M 9.1679688,7.4589844 10.261719,8.078125 V 9.3417969 L 9.1640625,8.7050781 Z m 3.0273442,1.5898437 -0.0293,0.017578 -1.306641,0.7597656 1.337891,0.7753913 1.328125,-0.7792976 z m -3.3027349,0.00195 -0.03125,0.017578 -1.3007812,0.765625 1.3242187,0.7695319 1.3417974,-0.7773444 z m 3.3027349,0.1386718 1.08789,0.6328125 -1.08789,0.6367186 -1.091797,-0.6328123 z M 8.890625,9.1933594 9.9804688,9.8261719 8.8847656,10.462891 7.8046875,9.8320313 Z m 1.494141,0.9082036 -0.0918,0.05273 -1.2480471,0.720703 0.011719,1.537109 1.3300781,-0.759765 z m 0.316406,0 v 1.546875 l 1.337891,0.757812 0.0039,-1.529297 -0.0293,-0.01758 z m -0.439453,0.210937 0.002,1.267578 -1.0859376,0.621094 -0.00977,-1.255859 z m 0.5625,0 1.097656,0.634766 -0.0059,1.248047 -1.091797,-0.619141 z"
       id="path1004" /></g></svg>
