<svg xmlns="http://www.w3.org/2000/svg" xml:space="preserve" width="251.581" height="251.249" viewBox="0 0 30.831 30.79"><path d="M15.416 0A15.395 15.395 0 0 0 .02 15.395 15.395 15.395 0 0 0 15.416 30.79 15.395 15.395 0 0 0 30.81 15.395 15.395 15.395 0 0 0 15.416 0m5.595 5.658.041 5.479-4.775 2.763-.001-.002h-.01L16.26 8.38zm-11.23.023 4.77 2.706.004 5.513-4.793-2.773zm12.127 6.934 4.738 2.758-4.737 2.782-4.77-2.76.003-.004-.006-.01zm-12.969.01 4.759 2.757-.008.015-4.784 2.768-4.72-2.748zm5.61 4.255.006.012h.002l.004 5.524-4.741 2.716-.041-5.488zm1.737.002 4.783 2.772-.02 5.455-4.77-2.707-.008-5.513h.01z" style="fill:#000;fill-opacity:1;stroke-width:.00685488;stroke-linecap:round;stroke-linejoin:round;stroke-miterlimit:500"/></svg>