<svg xmlns="http://www.w3.org/2000/svg" xml:space="preserve" width="252.006" height="252.063" viewBox="0 0 30.883 30.89"><path d="M16.879.329c-.27-.097-.58-.178-.689-.179-.679-.006-3.782-1.304-4.826-2.02-2.5-1.71-4.471-3.921-5.523-6.192a41 41 0 0 0-.432-.9c-.128-.26-.234-.55-.234-.645 0-.096-.048-.27-.107-.387-.171-.339-.383-1.067-.385-1.325 0-.13-.08-.457-.178-.726-.25-.696-.25-5.064 0-5.76.097-.27.177-.597.178-.727.002-.257.214-.985.385-1.324a1 1 0 0 0 .107-.338c0-.132.414-1.113.646-1.532.075-.135.252-.466.393-.736.14-.27.42-.733.62-1.03.2-.296.419-.624.486-.729.62-.965 2.46-2.676 4.044-3.76 1.038-.71 4.133-2.014 4.794-2.02.127 0 .451-.08.72-.178.697-.25 5.064-.25 5.76 0 .27.097.595.178.721.179.655.005 3.637 1.265 4.794 2.025 1.426.936 3.428 2.794 4.045 3.754.067.105.286.433.486.73.2.296.48.76.62 1.03.141.269.317.6.392.735.27.485.646 1.41.646 1.584 0 .098.055.212.123.254.067.041.122.234.122.429s.055.387.123.429c.067.041.122.23.122.42s.083.58.184.866c.138.392.184 1.09.184 2.819s-.046 2.427-.184 2.819c-.1.286-.184.676-.184.866s-.055.379-.122.42c-.068.042-.123.235-.123.43 0 .194-.055.387-.122.428-.068.042-.123.156-.123.254 0 .174-.377 1.099-.646 1.584-.075.135-.251.466-.392.736-.14.27-.42.733-.62 1.03-.2.296-.42.624-.486.729-.204.317-1.064 1.268-1.715 1.897A15.3 15.3 0 0 1 23.864 0c-.27.071-.786.216-1.147.323-.898.264-5.11.268-5.838.006m4.718-6.081c.303-.07.717-.184.92-.252.634-.214 2.389-1.109 2.389-1.218 0-.058.08-.105.176-.105.097 0 .673-.499 1.28-1.108.952-.955 1.188-1.28 1.713-2.36.792-1.626 1.011-2.522 1.013-4.13 0-1.602-.217-2.495-1.006-4.116-.518-1.064-.761-1.398-1.749-2.4-1.01-1.024-1.293-1.234-2.36-1.749-1.835-.885-1.856-.892-3.356-1.033-1.425-.135-3.188.09-4.04.515-.225.112-.484.205-.575.205s-.165.044-.165.1c0 .054-.194.175-.431.268-.238.093-.522.27-.632.39-.11.122-.269.222-.353.222-.199 0-2.26 2.061-2.26 2.26 0 .084-.1.243-.221.353-.122.11-.298.395-.39.632-.094.237-.215.431-.27.431s-.1.073-.1.161-.11.39-.245.668c-.135.28-.245.624-.245.767 0 .142-.06.37-.132.505-.162.303-.173 3.252-.014 3.668.063.163.182.518.263.788s.396.996.697 1.615c.47.964.72 1.294 1.736 2.3.97.958 1.39 1.277 2.29 1.73.607.306 1.407.642 1.778.746 1.316.372 3.06.431 4.289.147m-2.88-3.25c-.503-.11-1.601-.463-1.838-.589-.673-.359-1.9-1.387-1.9-1.592 0-.03-.156-.29-.347-.58-.856-1.299-1.081-3.478-.539-5.209.51-1.628 2.066-3.147 3.705-3.617 1.327-.38 1.54-.41 2.388-.318 1.787.191 3.081.825 4.087 2.002.855 1.001 1.033 1.373 1.373 2.864.307 1.345-.225 3.967-.922 4.545-.102.085-.186.22-.186.299 0 .18-.881 1.051-1.062 1.051-.073 0-.202.084-.287.186-.542.653-3.234 1.23-4.472.958" style="fill:#000;stroke-width:.122549" transform="translate(-4.317 30.367)"/></svg>