<svg xmlns="http://www.w3.org/2000/svg" xml:space="preserve" width="251.605" height="251.427" viewBox="0 0 30.834 30.812"><path d="M161.287-5.715a2.2 2.2 0 0 0-.665-.165c-.312-.006-1.023-.205-1.386-.388a1.1 1.1 0 0 0-.4-.108c-.103 0-.283-.048-.4-.107-.117-.06-.709-.348-1.316-.64-1.709-.827-2.744-1.59-4.171-3.07-1.252-1.3-1.87-2.115-2.45-3.23-.141-.269-.315-.6-.388-.735-.072-.134-.2-.41-.282-.612a9 9 0 0 0-.26-.58 1.2 1.2 0 0 1-.108-.46c0-.136-.055-.247-.123-.247-.067 0-.122-.162-.122-.36 0-.199-.05-.391-.11-.429-.206-.127-.488-2.503-.488-4.113s.282-3.986.488-4.113c.06-.038.11-.204.11-.369s.049-.397.108-.514c.06-.117.162-.35.228-.519.231-.591 1.193-2.516 1.44-2.88 1.182-1.747 3.405-3.968 4.596-4.594.169-.088.334-.198.368-.244.063-.086 2.078-1.07 2.512-1.228.135-.049.466-.155.736-.236s.6-.194.735-.25c1.1-.459 5.988-.617 7.047-.228.303.112.82.24 1.15.285.328.045.742.139.918.21s.432.168.566.217c.45.166 2.45 1.145 2.513 1.23.033.046.199.156.367.244 1.191.625 3.372 2.803 4.604 4.6.246.358 1.186 2.244 1.432 2.874.066.169.169.402.229.52.059.116.108.348.108.513s.055.335.122.377c.068.041.123.241.123.444 0 .202.06.482.135.62.39.73.157 6.89-.27 7.154-.06.038-.11.203-.11.369s-.049.396-.108.514a7 7 0 0 0-.228.519c-.23.586-1.192 2.514-1.438 2.88-.603.896-1.03 1.413-1.956 2.37-1.435 1.485-2.469 2.245-4.175 3.07-.606.293-1.198.582-1.315.64-.117.06-.297.108-.4.108s-.283.049-.4.108c-.355.18-1.037.362-1.684.451-.337.047-.668.127-.735.18-.217.167-4.738.099-5.147-.078m-.98-6.204c.443-.153 1.147-.786 1.295-1.166.073-.187.21-.276.425-.276.181 0 .284.053.24.123-.042.068.196.41.529.758.594.624.616.634 1.264.606.59-.026.713-.083 1.18-.539.286-.28.52-.608.52-.728 0-.338.59-.293.727.056.273.7 1.743 1.57 2.221 1.313.122-.065.329-.118.459-.118.368 0 1.34-1.118 1.452-1.671.132-.651.095-1.636-.068-1.798-.331-.331-.138-.762.724-1.617.472-.468.858-.913.858-.989s.11-.237.245-.36c.134-.121.245-.288.245-.37s.081-.218.18-.3c.1-.083.217-.352.261-.598s.122-.502.173-.57c.358-.476.364-3.42.007-3.777a.56.56 0 0 1-.132-.346c0-.117-.188-.589-.419-1.047-.32-.637-.694-1.096-1.578-1.937-1.363-1.299-1.623-1.491-2.598-1.926-3.093-1.378-6.263-1.332-9.201.131-.41.205-.817.458-.904.562s-.221.191-.299.191-.644.51-1.26 1.134c-1.063 1.076-1.878 2.312-1.878 2.85 0 .105-.087.325-.194.487-.109.167-.16.402-.117.537.042.133.019.277-.051.32-.145.09-.177 1.69-.036 1.831.05.05.095.184.1.296.024.622.637 2.09 1.07 2.563.138.152.202.276.14.276-.06 0 .315.428.833.95.952.96 1.107 1.3.784 1.725-.182.24-.15 1.675.046 2.07.265.533 1.126 1.382 1.403 1.385a.95.95 0 0 1 .434.12.46.46 0 0 0 .368.048c.1-.04.349-.13.551-.2zm2.696-5.004c-1.285-.18-1.692-.306-2.711-.832-2.493-1.287-3.454-3.691-2.49-6.227.073-.191.117-.347.1-.347s.383-.428.892-.95c.51-.522.994-.95 1.078-.95.083 0 .298-.102.477-.226s.463-.265.632-.312.61-.176.98-.285c.852-.253 3.129-.283 3.983-.053 1.642.442 2.247.765 3.23 1.728 1.102 1.078 1.486 1.939 1.487 3.332.002 1.84-1.027 3.353-2.94 4.319-1.467.741-3.137 1.025-4.718.803" style="fill:#000;stroke-width:.122549" transform="translate(-148.618 36.354)"/></svg>