<svg xmlns="http://www.w3.org/2000/svg" viewBox="0 0 31.01 31.01"><path d="M15.505 0A15.505 15.505 0 0 0 0 15.505 15.505 15.505 0 0 0 15.505 31.01 15.505 15.505 0 0 0 31.01 15.505 15.505 15.505 0 0 0 15.505 0m0 6.347a9.53 8.053 0 0 1 9.53 8.053 9.53 8.053 0 0 1-3.257 6.06 2.3 2.584 0 0 1 .509 1.62 2.3 2.584 0 0 1-2.3 2.583 2.3 2.584 0 0 1-2.296-2.427 9.53 8.053 0 0 1-.124.023 1.999 2.584 0 0 1-1.993 2.404 1.999 2.584 0 0 1-1.992-2.377 9.53 8.053 0 0 1-.192-.037 2.3 2.584 0 0 1-2.295 2.414 2.3 2.584 0 0 1-2.3-2.583 2.3 2.584 0 0 1 .485-1.586A9.53 8.053 0 0 1 5.975 14.4a9.53 8.053 0 0 1 9.53-8.053m0 2.83A6.646 5.222 0 0 0 8.86 14.4a6.646 5.222 0 0 0 6.646 5.222 6.646 5.222 0 0 0 6.646-5.222 6.646 5.222 0 0 0-6.646-5.222"/></svg>