<?xml version="1.0" encoding="UTF-8" standalone="no"?>
<svg
   xml:space="preserve"
   width="253.04297"
   height="253.04297"
   viewBox="0 0 31.010222 31.010034"
   version="1.1"
   id="svg213"
   sodipodi:docname="poison.svg"
   inkscape:version="1.2 (dc2aeda, 2022-05-15)"
   xmlns:inkscape="http://www.inkscape.org/namespaces/inkscape"
   xmlns:sodipodi="http://sodipodi.sourceforge.net/DTD/sodipodi-0.dtd"
   xmlns="http://www.w3.org/2000/svg"
   xmlns:svg="http://www.w3.org/2000/svg"><defs
     id="defs217" /><sodipodi:namedview
     id="namedview215"
     pagecolor="#505050"
     bordercolor="#eeeeee"
     borderopacity="1"
     inkscape:showpageshadow="0"
     inkscape:pageopacity="0"
     inkscape:pagecheckerboard="0"
     inkscape:deskcolor="#505050"
     showgrid="false"
     inkscape:zoom="1.1760439"
     inkscape:cx="71.425907"
     inkscape:cy="207.0501"
     inkscape:window-width="1440"
     inkscape:window-height="900"
     inkscape:window-x="0"
     inkscape:window-y="0"
     inkscape:window-maximized="0"
     inkscape:current-layer="svg213" /><path
     id="path325-6"
     style="fill:#000000;fill-opacity:0.99743581;stroke-width:0.22353;stroke-linecap:round;stroke-linejoin:round;stroke-miterlimit:500"
     d="M 15.505111,-9.3503466e-5 A 15.505156,15.505156 0 0 0 0,15.505018 15.505156,15.505156 0 0 0 15.505111,31.010129 15.505156,15.505156 0 0 0 31.010222,15.505018 15.505156,15.505156 0 0 0 15.505111,-9.3503466e-5 Z m 0,6.347188703466 a 9.5296803,8.0527725 0 0 1 9.529639,8.0528258 9.5296803,8.0527725 0 0 1 -3.25665,6.059246 2.300056,2.5836008 0 0 1 0.508627,1.620426 2.300056,2.5836008 0 0 1 -2.299952,2.583587 2.300056,2.5836008 0 0 1 -2.295405,-2.427289 9.5296803,8.0527725 0 0 1 -0.123985,0.02346 1.9987898,2.5836008 0 0 1 -1.99334,2.403832 A 1.9987898,2.5836008 0 0 1 13.582141,22.28568 9.5296803,8.0527725 0 0 1 13.389701,22.2493 2.300056,2.5836008 0 0 1 11.095253,24.663185 2.300056,2.5836008 0 0 1 8.7950619,22.079593 2.300056,2.5836008 0 0 1 9.2797537,20.493634 9.5296803,8.0527725 0 0 1 5.9754721,14.399921 9.5296803,8.0527725 0 0 1 15.505111,6.3470952 Z m 0,2.8306001 a 6.6461959,5.2220359 0 0 0 -6.6461416,5.2222257 6.6461959,5.2220359 0 0 0 6.6461416,5.221986 6.6461959,5.2220359 0 0 0 6.646381,-5.221986 6.6461959,5.2220359 0 0 0 -6.646381,-5.2222257 z" /></svg>
