<?xml version="1.0" encoding="UTF-8" standalone="no"?>
<svg
   viewBox="0 0 65 65"
   version="1.1"
   id="svg4490"
   sodipodi:docname="poison.svg.2025_06_29_09_50_45.0.svg"
   width="65"
   height="65"
   inkscape:version="1.2 (dc2aeda, 2022-05-15)"
   xmlns:inkscape="http://www.inkscape.org/namespaces/inkscape"
   xmlns:sodipodi="http://sodipodi.sourceforge.net/DTD/sodipodi-0.dtd"
   xmlns="http://www.w3.org/2000/svg"
   xmlns:svg="http://www.w3.org/2000/svg">
  <defs
     id="defs4494" />
  <sodipodi:namedview
     id="namedview4492"
     pagecolor="#505050"
     bordercolor="#eeeeee"
     borderopacity="1"
     inkscape:showpageshadow="0"
     inkscape:pageopacity="0"
     inkscape:pagecheckerboard="0"
     inkscape:deskcolor="#505050"
     showgrid="false"
     inkscape:zoom="5.3569245"
     inkscape:cx="19.22745"
     inkscape:cy="27.161107"
     inkscape:window-width="1440"
     inkscape:window-height="900"
     inkscape:window-x="0"
     inkscape:window-y="0"
     inkscape:window-maximized="0"
     inkscape:current-layer="svg4490" />
  <path
     d="m 32.5,0.5 a 32,32 0 0 0 -32,32 32,32 0 0 0 32,32.000001 A 32,32 0 0 0 64.500001,32.5 32,32 0 0 0 32.5,0.5 m 0,13.099258 a 19.668494,16.620187 0 0 1 19.668495,16.620188 19.668494,16.620187 0 0 1 -6.721961,12.506933 4.7468559,5.3329894 0 0 1 1.0505,3.343438 4.7468559,5.3329894 0 0 1 -4.746856,5.330925 4.7468559,5.3329894 0 0 1 -4.738601,-5.008965 19.668494,16.620187 0 0 1 -0.255917,0.04747 4.1256369,5.3329894 0 0 1 -4.113254,4.961496 4.1256369,5.3329894 0 0 1 -4.11119,-4.905772 19.668494,16.620187 0 0 1 -0.396259,-0.07636 A 4.7468559,5.3329894 0 0 1 23.39842,51.400742 4.7468559,5.3329894 0 0 1 18.651564,46.069817 4.7468559,5.3329894 0 0 1 19.652532,42.79655 19.668494,16.620187 0 0 1 12.831506,30.219446 19.668494,16.620187 0 0 1 32.5,13.599258 m 0,5.840697 A 13.71635,10.777427 0 0 0 18.785715,30.219446 13.71635,10.777427 0 0 0 32.502064,40.996873 13.71635,10.777427 0 0 0 46.218414,30.219446 13.71635,10.777427 0 0 0 32.502064,19.442019"
     id="path4488"
     style="stroke:#ffffff;stroke-width:1;stroke-linejoin:round;stroke-opacity:1" />
</svg>
