<svg xmlns="http://www.w3.org/2000/svg" xml:space="preserve" width="251.022" height="251.348" viewBox="0 0 30.762 30.802"><path d="M62.387-46.838c-.032-.032-.36-.083-.73-.115-.37-.031-.999-.146-1.4-.256s-.892-.242-1.094-.295c-2.757-.725-6.112-3.194-8.027-5.906-1.323-1.875-2.386-4.523-2.647-6.599-.616-4.891.832-9.351 4.171-12.85 2.992-3.133 7.15-4.874 11.347-4.748 2.07.062 2.675.164 4.592.775 4.324 1.378 8.278 5.246 9.621 9.41.152.471.318.967.37 1.102.385 1.015.532 2.175.523 4.105-.012 2.352-.114 2.938-.927 5.331-.661 1.948-1.86 3.795-3.581 5.516-1.768 1.767-3.878 3.114-5.76 3.675a77 77 0 0 0-1.445.45 8 8 0 0 1-1.471.3c-1.099.103-3.475.172-3.542.105m3.14-6.422c.207-.063.624-.185.927-.27.734-.209 1.839-.712 1.839-.838 0-.055-.207-.041-.46.032-.634.182-4.442.259-4.608.093-.07-.07-.248-.129-.395-.129-.289 0-.845-.209-1.866-.701-.708-.342-1.862-1.31-1.862-1.562 0-.087-.088-.23-.196-.32-.357-.296-.734-1.21-1.15-2.788-.217-.82-.128-3.129.152-3.938.336-.972.55-1.42.762-1.596.103-.084.186-.218.186-.297 0-.223 1.112-1.238 1.655-1.51 1.206-.604 1.473-.666 3.186-.733 1.169-.046 1.462-.016 2.206.23 1.441.474 2.588 1.436 3.047 2.554.124.303.275.647.336.764.152.294.14 3.124-.013 3.218-.067.042-.122.202-.122.356s-.11.38-.246.502c-.134.122-.245.286-.245.364 0 .174-.638.8-.815.8-.07 0-.227.11-.349.246-.122.134-.348.245-.502.245s-.314.055-.356.122c-.042.068-.595.123-1.237.123-.985 0-1.248-.045-1.739-.296-1.255-.641-1.864-1.676-1.864-3.167 0-1.506.379-2.008 1.9-2.513.746-.248 1.526-.096 2.191.428.323.254.348.337.36 1.19.014.855-.01.943-.342 1.29-.494.515-1.112.515-1.664-.001q-.4-.375-.523-.25c-.19.19.628.945 1.258 1.16.505.173.577.17.98-.042.24-.126.53-.258.644-.295.28-.088.735-1.108.804-1.798.08-.807-.665-2.324-1.142-2.324-.08 0-.218-.086-.306-.19-.255-.308-.957-.545-1.614-.545-.721 0-1.852.306-2.06.557-.082.098-.213.178-.292.178-.28 0-1.143 1.055-1.524 1.862-.314.666-.386.973-.386 1.646 0 .905.36 2.139.75 2.566.127.14.23.308.23.374 0 .153.866 1.003 1.245 1.22.83.479 1.71.827 2.37.94l.997.171c.22.04.42.01.467-.066.045-.074.287-.134.537-.134.466 0 1.212-.24 2.289-.735.615-.284 2.144-1.647 2.144-1.912 0-.078.082-.21.18-.292.208-.172.8-1.416.8-1.68 0-.096.091-.452.202-.79.22-.673.18-1.939-.089-2.774-.355-1.105-.657-1.823-.867-2.058-.124-.14-.226-.303-.226-.365 0-.149-1.984-2.14-2.132-2.14-.063 0-.203-.078-.31-.175-.284-.258-1.822-.982-2.46-1.159-.303-.084-.73-.207-.948-.274s-1-.122-1.74-.122c-1.654 0-3.064.392-4.212 1.171-.255.173-.501.315-.547.315-.145 0-2.111 2.01-2.111 2.157 0 .078-.082.209-.182.291-.216.18-.554.83-.554 1.067 0 .093-.082.296-.183.45-.243.37-.446 1.291-.516 2.346-.032.472-.105.915-.162.984-.059.07-.055.207.009.307.062.099.114.436.115.75.002.742.638 2.678 1.106 3.372.202.298.367.584.367.634 0 .138 1.784 1.857 1.927 1.857.07 0 .195.084.28.187.187.224 1.704.942 2.388 1.13 1.232.338 1.527.399 1.937.399.241 0 .472.055.514.123.096.154 1.33.16 1.83.008" style="fill:#000;stroke-width:.122549" transform="translate(-48.35 77.614)"/></svg>