<svg xmlns="http://www.w3.org/2000/svg" xml:space="preserve" width="252" height="252" viewBox="0 0 30.882 30.882"><path d="M-31.667-.788c-.042-.067-.373-.122-.735-.122-.363 0-.694-.055-.736-.123-.041-.067-.262-.122-.49-.122s-.448-.055-.49-.123c-.042-.067-.262-.122-.49-.122s-.449-.056-.49-.123c-.042-.067-.169-.123-.283-.123-.269 0-2.905-1.311-3.094-1.54-.08-.096-.212-.175-.292-.175s-.304-.166-.498-.368-.412-.368-.485-.368c-.17 0-2.395-2.229-2.395-2.4 0-.07-.165-.286-.368-.48-.202-.193-.367-.417-.367-.498 0-.08-.08-.211-.176-.291-.228-.19-1.54-2.826-1.54-3.095 0-.113-.055-.24-.123-.282-.067-.042-.122-.207-.122-.368 0-.16-.055-.326-.123-.367-.067-.042-.122-.318-.122-.613s-.055-.571-.123-.613c-.067-.042-.122-.372-.122-.735s-.055-.694-.123-.735c-.07-.044-.122-.694-.122-1.532s.052-1.489.122-1.532c.068-.042.123-.373.123-.735 0-.363.055-.694.122-.736.068-.041.123-.317.123-.613 0-.295.055-.57.122-.612.068-.042.123-.207.123-.368 0-.16.055-.326.122-.368.068-.041.123-.168.123-.282 0-.269 1.312-2.905 1.54-3.094.097-.08.176-.212.176-.292s.165-.304.367-.498c.203-.194.368-.412.368-.485 0-.17 2.23-2.395 2.4-2.395.07 0 .286-.166.48-.368s.418-.367.498-.367.212-.08.292-.176c.19-.228 2.825-1.54 3.094-1.54.114 0 .24-.055.283-.123.041-.067.207-.122.367-.122s.326-.055.368-.123c.042-.067.317-.122.613-.122.295 0 .57-.055.612-.123.042-.067.373-.122.736-.122.362 0 .693-.055.735-.123.044-.07.693-.122 1.532-.122.838 0 1.488.052 1.532.122.041.067.372.123.735.123s.694.055.735.122c.042.068.318.123.613.123s.571.055.613.122c.041.068.207.123.367.123.161 0 .326.055.368.122.042.068.169.123.282.123.27 0 2.905 1.312 3.095 1.54.08.097.211.176.292.176s.304.165.498.367c.193.202.412.368.485.368.17 0 2.395 2.23 2.395 2.4 0 .07.165.286.367.48s.368.418.368.498.079.211.176.292c.228.19 1.54 2.825 1.54 3.094 0 .114.055.24.122.282.068.042.123.208.123.368s.055.326.122.368c.068.041.123.317.123.612 0 .296.055.572.122.613.068.042.123.373.123.736 0 .362.055.693.122.735.071.043.123.693.123 1.532 0 .838-.052 1.488-.123 1.532-.067.041-.122.372-.122.735s-.055.693-.123.735c-.067.042-.122.262-.122.49s-.055.449-.123.49c-.067.042-.122.263-.122.49 0 .229-.055.45-.123.49-.067.043-.122.17-.122.283 0 .27-1.312 2.905-1.54 3.095-.097.08-.176.211-.176.291s-.166.305-.368.499c-.202.193-.367.412-.367.484 0 .17-2.23 2.395-2.4 2.395-.07 0-.287.166-.48.368-.194.202-.418.368-.498.368s-.212.079-.292.176c-.19.228-2.825 1.54-3.095 1.54-.113 0-.24.055-.282.122s-.262.123-.49.123-.449.055-.49.122c-.042.068-.263.123-.49.123-.228 0-.45.055-.49.122-.042.068-.373.123-.736.123s-.694.055-.735.122c-.044.07-.694.123-1.532.123s-1.488-.052-1.532-.123m6.808-6.648c.163-.219.387-.564.498-.766s.316-.56.458-.796c.141-.236.454-.788.695-1.226s.623-1.1.85-1.47c.226-.371.588-1.005.805-1.41.216-.404.463-.818.548-.919s.328-.515.538-.92c.21-.404.451-.83.534-.949.118-.167.12-.262.005-.429-.08-.118-.32-.545-.534-.95s-.459-.818-.544-.919c-.086-.1-.298-.467-.472-.814-.174-.348-.47-.871-.657-1.165-.572-.894-.632-.996-1.065-1.827-.231-.442-.507-.875-.613-.963s-.165-.205-.13-.26c.034-.056.002-.138-.07-.182-.073-.045-.187-.225-.254-.4a6 6 0 0 0-.452-.842l-.33-.523-5.121-.004c-4.766-.004-5.126.01-5.203.21-.045.118-.236.443-.425.722-.188.28-.343.557-.343.617s-.196.41-.436.78c-.24.368-.518.86-.617 1.094-.1.233-.226.454-.28.49-.1.067-.497.742-1.328 2.258-.255.465-.52.934-.59 1.042-.242.378-.552.991-.538 1.065.008.04-.13.225-.307.41-.315.329-.317.34-.1.631.122.163.38.6.572.97.193.371.42.757.504.858.083.102.326.515.539.92.213.404.573 1.038.8 1.409.226.37.588 1.005.804 1.41.216.404.506.859.645 1.01.14.152.217.276.172.276-.086 0 .464 1.046.71 1.348.081.101.183.28.225.398.07.2.428.215 5.142.215h5.067zm-6.73-3.849c-.939-.203-2.47-1.483-3.052-2.552-.316-.58-.335-.704-.335-2.208 0-1.484.023-1.64.332-2.267.377-.767 1.481-1.885 2.303-2.334.508-.278.68-.301 2.206-.301 1.558 0 1.69.02 2.267.327.74.395 1.743 1.41 2.222 2.247.338.59.35.671.35 2.267s-.012 1.676-.35 2.267c-.446.779-1.482 1.854-2.038 2.114-.236.111-.465.254-.509.318-.085.125-2.913.227-3.396.122" style="fill:#000;stroke-width:.122549" transform="translate(45.576 31.547)"/></svg>