<?xml version="1.0" encoding="UTF-8" standalone="no"?>
<svg
   xml:space="preserve"
   viewBox="0 0 64.999998 64.999999"
   version="1.1"
   id="svg213"
   sodipodi:docname="water.svg"
   width="65"
   height="65"
   inkscape:version="1.2 (dc2aeda, 2022-05-15)"
   xmlns:inkscape="http://www.inkscape.org/namespaces/inkscape"
   xmlns:sodipodi="http://sodipodi.sourceforge.net/DTD/sodipodi-0.dtd"
   xmlns="http://www.w3.org/2000/svg"
   xmlns:svg="http://www.w3.org/2000/svg"><defs
     id="defs217" /><sodipodi:namedview
     id="namedview215"
     pagecolor="#505050"
     bordercolor="#eeeeee"
     borderopacity="1"
     inkscape:showpageshadow="0"
     inkscape:pageopacity="0"
     inkscape:pagecheckerboard="0"
     inkscape:deskcolor="#505050"
     showgrid="false"
     inkscape:zoom="5.9114964"
     inkscape:cx="28.165457"
     inkscape:cy="55.569686"
     inkscape:window-width="1440"
     inkscape:window-height="900"
     inkscape:window-x="0"
     inkscape:window-y="0"
     inkscape:window-maximized="0"
     inkscape:current-layer="svg213" /><g
     id="path211"><path
       style="color:#000000;fill:#000000;stroke-linecap:round;-inkscape-stroke:none"
       d="M 32.5,0.5 A 32,31.998952 0 0 0 0.50000007,32.498952 32,31.998952 0 0 0 32.5,64.499999 32,31.998952 0 0 0 64.5,32.498952 32,31.998952 0 0 0 32.5,0.5 m -0.03771,11.306687 c 0,0 6.071494,7.202593 8.732224,11.080428 3.484091,5.080363 5.91227,10.55249 5.723714,16.412191 -0.192746,5.991685 -5.463926,13.883531 -14.455938,13.948476 -8.992013,0.06494 -13.737332,-7.378572 -14.173105,-13.948476 -0.427393,-6.42116 2.30457,-10.887689 5.78028,-16.412191 2.467985,-3.92183 8.392825,-11.082523 8.392825,-11.082523 m -6.436035,22.655275 q -0.14456,0.0063 -0.395967,0.240925 c -1.15438,1.085207 -2.074113,3.245147 -2.095064,5.656486 a 8.5499541,8.5496742 0 0 0 16.896687,1.851975 c 0.234647,-1.460211 -0.167605,-1.104062 -1.081052,-0.377099 a 8.0240932,8.0238305 0 0 1 -5.074244,1.814266 c -2.214482,0 -4.76208,-1.248617 -6.048449,-2.784248 -1.305224,-1.554486 -1.944218,-3.649481 -1.919078,-4.929523 0.02095,-0.938558 -0.01257,-1.487447 -0.282833,-1.472782"
       id="path1610" /><path
       style="color:#000000;fill:#ffffff;stroke-linecap:round;-inkscape-stroke:none"
       d="M 32.5,0 C 14.556695,3.9249695e-8 0,14.555303 0,32.498047 -0.00117482,50.441621 14.555865,65 32.5,65 50.444135,65 65.001175,50.441621 65,32.498047 65,14.555303 50.443305,0 32.5,0 Z m 0,1 C 49.902883,1 64,15.09576 64,32.498047 64.001139,49.90114 49.90369,64 32.5,64 15.09631,64 0.99886057,49.90114 1,32.498047 1,15.09576 15.097117,1 32.5,1 Z m -0.08398,10.306641 a 0.5,0.5 0 0 0 -0.228516,0.121093 0.5,0.5 0 0 0 -0.04687,-0.0039 0.5,0.5 0 0 0 -0.002,0.0293 0.5,0.5 0 0 0 -0.0625,0.0332 c 0,0 -5.915702,7.139837 -8.429688,11.134766 -3.477505,5.527355 -6.293259,10.133569 -5.855468,16.710937 0.224993,3.392096 1.553603,6.99325 4.001953,9.761719 2.44835,2.768469 6.039236,4.687768 10.673828,4.654297 4.641559,-0.03352 8.348911,-2.097704 10.894531,-4.916016 2.545621,-2.818312 3.955785,-6.382392 4.056641,-9.517578 C 47.611284,33.306843 45.12494,27.73262 41.607422,22.603516 38.909346,18.671252 32.84375,11.484375 32.84375,11.484375 a 0.5,0.5 0 0 0 -0.0098,0 0.5,0.5 0 0 0 -0.05273,-0.06445 0.5,0.5 0 0 0 -0.365234,-0.113281 z m 0.04297,1.300781 c 0.487724,0.58037 5.814735,6.905095 8.324219,10.5625 h -0.002 c 3.450657,5.031611 5.820515,10.401501 5.636719,16.113281 -0.09189,2.856493 -1.412674,6.23519 -3.798828,8.876953 -2.386154,2.641763 -5.809713,4.55647 -10.160157,4.587891 -4.357412,0.03147 -7.636717,-1.738837 -9.917968,-4.31836 -2.281252,-2.579522 -3.541174,-5.986261 -3.751954,-9.164062 h -0.002 c -0.416995,-6.264939 2.23117,-10.58969 5.705078,-16.111328 2.277971,-3.619882 7.334621,-9.77862 7.966797,-10.546875 z M 26,33.960937 a 0.5,0.5 0 0 0 -0.0039,0.0039 c -0.345593,0.01857 -0.508285,0.185613 -0.707032,0.371093 h -0.002 c -1.299047,1.221206 -2.22992,3.48171 -2.251953,6.017579 v 0.002 0.002 c 5.43e-4,4.611825 3.47996,8.491653 8.064453,8.99414 4.584494,0.502488 8.820754,-2.530995 9.820313,-7.033203 l 0.0039,-0.01563 0.002,-0.01367 c 0.06171,-0.384003 0.09121,-0.656638 0.06055,-0.916015 -0.01533,-0.129688 -0.04219,-0.268782 -0.152344,-0.416016 -0.110148,-0.147233 -0.335755,-0.253457 -0.505859,-0.255859 -0.340209,-0.0048 -0.488016,0.137236 -0.675781,0.267578 -0.187766,0.130342 -0.386494,0.292168 -0.613282,0.472656 l -0.002,0.002 -0.002,0.002 c -1.342048,1.098243 -3.02369,1.699086 -4.757812,1.701172 -2.026533,0 -4.50265,-1.216675 -5.666016,-2.605468 -1.21464,-1.446604 -1.824398,-3.494627 -1.802734,-4.597657 0.01066,-0.4774 0.01339,-0.85891 -0.03711,-1.18164 -0.02525,-0.161365 -0.05633,-0.312521 -0.162109,-0.478516 -0.10403,-0.163256 -0.365938,-0.323171 -0.599609,-0.316406 a 0.5,0.5 0 0 0 -0.0059,-0.0059 c -0.0012,5.1e-5 -8.02e-4,0.0019 -0.002,0.002 -9.07e-4,4.3e-5 -0.001,-0.002 -0.002,-0.002 z m -0.205078,1.388672 c 0.0064,0.183286 0.01953,0.309908 0.01367,0.572266 -0.02862,1.457052 0.641304,3.599353 2.037109,5.261719 1.40937,1.682466 4.029214,2.96289 6.431641,2.96289 1.962791,-0.0019 3.864851,-0.68215 5.384765,-1.923828 l 0.002,-0.002 c 0.116855,-0.093 0.189728,-0.146356 0.285157,-0.220703 -0.0065,0.05159 -6.08e-4,0.05241 -0.0098,0.111328 -0.895087,4.006477 -4.648344,6.693518 -8.730469,6.246094 -4.084419,-0.447676 -7.171351,-3.887801 -7.173828,-7.996094 v -0.002 c 0,-6.64e-4 0,-0.0013 0,-0.002 0.01953,-2.133347 0.83354,-3.988151 1.759766,-5.007813 z"
       id="path1612" /></g></svg>
