<?xml version="1.0" encoding="UTF-8" standalone="no"?>
<svg
   xml:space="preserve"
   width="250.28"
   height="249.869"
   viewBox="0 0 30.672 30.621"
   version="1.1"
   id="svg213"
   sodipodi:docname="water.svg"
   inkscape:version="1.2 (dc2aeda, 2022-05-15)"
   xmlns:inkscape="http://www.inkscape.org/namespaces/inkscape"
   xmlns:sodipodi="http://sodipodi.sourceforge.net/DTD/sodipodi-0.dtd"
   xmlns="http://www.w3.org/2000/svg"
   xmlns:svg="http://www.w3.org/2000/svg"><defs
     id="defs217" /><sodipodi:namedview
     id="namedview215"
     pagecolor="#505050"
     bordercolor="#eeeeee"
     borderopacity="1"
     inkscape:showpageshadow="0"
     inkscape:pageopacity="0"
     inkscape:pagecheckerboard="0"
     inkscape:deskcolor="#505050"
     showgrid="false"
     inkscape:zoom="1.0419329"
     inkscape:cx="121.88885"
     inkscape:cy="118.04983"
     inkscape:window-width="1246"
     inkscape:window-height="719"
     inkscape:window-x="0"
     inkscape:window-y="25"
     inkscape:window-maximized="0"
     inkscape:current-layer="svg213" /><rect
     style="fill:#ffffff;fill-opacity:1;stroke:#444444;stroke-width:0.245102;stroke-linecap:round;stroke-miterlimit:500"
     id="rect475"
     width="27.693403"
     height="27.693405"
     x="1.4892983"
     y="1.4637975" /><path
     id="path479"
     style="fill:#000000;fill-opacity:1;stroke-width:0.00834677;stroke-linecap:round;stroke-linejoin:round;stroke-miterlimit:500"
     d="m 15.31968,6.3559567 c 0,0 2.627196,3.116736 3.778521,4.7947693 1.507601,2.198395 2.558298,4.566317 2.476708,7.101951 -0.0834,2.592747 -2.364295,6.00774 -6.255229,6.035843 -3.890934,0.0281 -5.9442808,-3.192887 -6.1328443,-6.035843 -0.1849372,-2.778591 0.9972103,-4.711366 2.5011843,-7.101951 1.067922,-1.697071 3.63166,-4.7956759 3.63166,-4.7956759 m -2.784937,9.8034849 q -0.06255,0.0027 -0.171339,0.104254 c -0.499512,0.469595 -0.89749,1.404254 -0.906555,2.447698 a 3.6996508,3.6996508 0 0 0 7.311366,0.801395 c 0.101534,-0.631869 -0.07253,-0.477755 -0.467783,-0.16318 a 3.4721055,3.4721055 0 0 1 -2.195674,0.785077 c -0.958228,0 -2.060599,-0.540307 -2.617224,-1.204812 -0.564784,-0.672664 -0.841283,-1.579219 -0.830404,-2.133124 0.0091,-0.406136 -0.0054,-0.643654 -0.122385,-0.637308" /></svg>
